<svg width="600" height="235" viewBox="0 0 600 235" fill="none" xmlns="http://www.w3.org/2000/svg">
<path fill-rule="evenodd" clip-rule="evenodd" d="M101.6 234.7L50.8 205.4L0 176.1V161.9V117.4V58.6999L1.4 57.8999L0 58.6999C25.2 58.3999 48.3 62.3999 72.2 70.0999H72.3L72.8 70.2999C69.3 92.5999 67.7 110 70.9 142.7C74.1 175.2 86.8 215.7 101.6 234.7Z" fill="#00618E"/>
<path fill-rule="evenodd" clip-rule="evenodd" d="M141.5 211.6L101.6 234.7C89.8 219.6 79.4 191.1 74 163.6C92.6 157 111.8 147.9 130.2 136.6C141.2 129.8 151.2 122.6 160 115.3C183 96.2 198.1 76 203.2 58.7V117.3V172.4V176L181.2 188.7L152.4 205.4L141.5 211.6Z" fill="#00B2EA"/>
<path fill-rule="evenodd" clip-rule="evenodd" d="M101.6 0L129.3 16L152.4 29.4L203.2 58.7C198.5 74.9 184.9 93.7 164.2 111.7L163.2 112.6L162.1 113.5L161.1 114.4L160 115.3C137.5 98 108.1 82.2 75.8 71.3C50.6 62.8 26.4 58.4 0 58.7L50.8 29.4L101.6 0Z" fill="#0082CB"/>
<path fill-rule="evenodd" clip-rule="evenodd" d="M149.6 107.6L150.9 106.9C176.9 92.0999 195.3 74.8 203.2 58.7C198.5 74.9 184.9 93.7 164.3 111.7L163.3 112.6L162.3 113.5L161.2 114.4L160.1 115.3C156.7 112.7 153.2 110.1 149.6 107.6Z" fill="black"/>
<path fill-rule="evenodd" clip-rule="evenodd" d="M70.9 83.4C48.1 71.1 25.5 62.8 0 58.7C25.2 58.4 48.3 62.4 72.2 70.1H72.3L72.8 70.3001C72.1 74.8001 71.5 79.1 70.9 83.4Z" fill="black"/>
<path fill-rule="evenodd" clip-rule="evenodd" d="M86.8 158.7C87.2 187 92.5 217.5 101.7 234.7C89.9 219.6 79.5 191.1 74.1 163.6C78.2 162.1 82.5 160.4 86.8 158.7Z" fill="black"/>
<path fill-rule="evenodd" clip-rule="evenodd" d="M290.9 182.5L305.9 198.8H300.5L285.8 182.7H274.8V198.8H270.7V155.4H271.1H280.4H289.8L294.9 156.2L298.9 158.3L301.8 161.4L303.5 165.1L304.1 169.1L303.3 174.2L300.6 178.5L296.2 181.4L290.9 182.5ZM274.8 159.2V178.7H289.5C291.5 178.7 293.6 178.4 295.4 177.4L298.8 174L299.9 168.9L299.3 165.3L297.5 162.2L294.4 160L290 159.2H274.8V159.2ZM316.4 159.3V175.1H341.3V178.9H316.4V194.9H343.2V198.9H312.3V155.5H342.5V159.4H316.4V159.3ZM384.5 162.6L381.1 164.6L380.9 164.3L378.4 161.4L375.3 159.7L371.9 158.9L368.3 158.7L365.1 158.9L361.8 159.7L358.8 161.2L356.7 163.5L355.9 166.8L356.8 169.9L359.4 172L363.5 173.4L368.5 174.4L373.4 175.4L378 176.8L381.9 178.9L384.6 182.2L385.6 187L384.5 192.1L381.6 195.6L377.5 197.8L372.9 198.9L368.4 199.2L363.3 198.7L358.3 197L353.9 194.1L350.6 189.8L350.4 189.4L354 187.6L354.2 187.9L356.7 191.2L360.3 193.6L364.4 195L368.4 195.5L371.8 195.3L375.3 194.5L378.5 193L380.7 190.5L381.6 186.9L380.9 183.8L378.9 181.6L375.8 180L372 178.9L367.9 178L363.3 177L359 175.7L355.4 173.8L352.9 170.9L352 166.7L353 161.8L355.8 158.3L359.7 156L364.1 154.8L368.5 154.4L373 154.6L377.2 155.6L381 157.9L384.4 161.7L384.5 162.6ZM398 159.3V175.1H422.9V178.9H398V194.9H424.8V198.9H393.9V155.5H424V159.4H398V159.3ZM462.9 188.3H438L433.4 198.7H429L448.4 155.3H452.5L471.9 198.7H467.5L462.9 188.3ZM439.7 184.5H461.3L450.5 160L439.7 184.5ZM498.9 182.5L513.9 198.8H508.5L493.8 182.7H482.8V198.8H478.7V155.4H479.1H488.4H497.8L502.9 156.2L506.9 158.3L509.8 161.4L511.6 165.1L512.2 169.1L511.4 174.2L508.7 178.5L504.3 181.4L498.9 182.5ZM482.8 159.2V178.7H497.5C499.5 178.7 501.6 178.4 503.4 177.4L506.7 174L507.8 168.9L507.2 165.3L505.4 162.2L502.3 160L497.9 159.2H482.8V159.2ZM553.7 189.9L556.5 192.5L556.2 192.8L551.4 196.4C549.7 197.4 547.9 198.1 546.1 198.6C544.2 199.1 542.4 199.3 540.4 199.3C537.7 199.3 535.1 199 532.5 198.2C530.3 197.5 528.2 196.4 526.3 195L521.8 190.2C520.6 188.3 519.7 186.3 519.1 184.2C518.5 182 518.2 179.7 518.2 177.5C518.2 175.2 518.4 172.9 519 170.7C519.6 168.5 520.5 166.5 521.7 164.6C522.9 162.7 524.4 161 526.2 159.6C528.1 158.1 530.2 157 532.5 156.3C535.1 155.4 537.8 155.1 540.5 155.1C542.4 155.1 544.3 155.3 546.2 155.8C548.1 156.3 549.9 157 551.5 158L556.3 161.6L556.6 161.9L553.8 164.4L553.5 164.1L549.6 161.1L545.2 159.3L540.6 158.7C538.4 158.7 536.1 159 534 159.7C532.2 160.3 530.4 161.2 528.9 162.4L525.2 166.4L523 171.5C522.5 173.4 522.3 175.3 522.3 177.3C522.3 179.2 522.6 181.1 523.1 183L525.4 188L529 192C530.5 193.2 532.3 194 534.1 194.6C536.2 195.3 538.4 195.5 540.6 195.5L545.2 194.9L549.6 193.1L553.5 190.2L553.7 189.9ZM595.9 179.5H569.6V198.8H565.5V155.4H569.6V175.7H595.9V155.4H600V198.8H595.9V179.5Z" fill="black"/>
<path fill-rule="evenodd" clip-rule="evenodd" d="M285.5 35.8C288.2 35.8 290.8 36.1 293.4 37C295.6 37.7 297.7 38.8001 299.5 40.2001C301.2 41.5001 302.7 43.1 303.9 45C305.1 46.8 305.9 48.7 306.5 50.8C307.1 52.8 307.4 55.0001 307.5 57.1001C307.5 59.3001 307.3 61.5001 306.8 63.6001C306.3 65.7001 305.4 67.8001 304.3 69.6001C303.1 71.5001 301.7 73.2001 299.9 74.6001C298 76.1001 295.9 77.2 293.7 78C291.1 78.9 288.3 79.2001 285.6 79.2001H271.2H270.8V35.8H271.2H285.5V35.8ZM274.8 39.7001V75.2001H285.5C287.7 75.2001 290 74.9001 292.1 74.2001L297.1 71.4L300.6 67.3001L302.6 62.4L303.2 57.1001L302.4 52L300.2 47.3L296.7 43.4001L291.7 40.8C289.6 40.1 287.4 39.8 285.2 39.8H274.8V39.7001ZM321.1 79.1001H317.1V35.7001H321.1V79.1001ZM364.7 71.1001V59.8001H349.9V56.1001H368.6V72.6001L368.5 72.7001C366.3 74.9001 363.9 76.7 361.1 77.9C358.3 79.1 355.3 79.7001 352.2 79.7001C349.5 79.7001 346.8 79.4 344.2 78.5C342 77.8 339.8 76.7001 338 75.3001C336.2 73.9001 334.7 72.3 333.5 70.5C332.3 68.6 331.4 66.6 330.8 64.5C330.2 62.3 329.9 60.0001 329.9 57.7001C329.9 54.6001 330.4 51.5 331.5 48.5C332.6 45.8 334.1 43.5001 336.1 41.4001C338.1 39.4001 340.5 37.9001 343.2 36.9001C346.1 35.8001 349.1 35.3 352.2 35.3C354.1 35.3 356 35.5 357.9 36C359.8 36.5 361.6 37.2001 363.3 38.2001L368.1 41.8L368.4 42.1001L366 44.7001L365.7 44.4001L361.7 41.4001L357.1 39.6001L352.3 39C350 39 347.8 39.3 345.7 40C343.8 40.6 342.1 41.5001 340.6 42.7001L336.9 46.8L334.7 51.9C334.2 53.7 334 55.6 334 57.5C334 59.4 334.2 61.3001 334.8 63.2001L337 68.2001L340.7 72.2001C342.2 73.4001 344 74.2001 345.8 74.8001C347.9 75.5001 350.2 75.7001 352.4 75.8001L356.9 75.3001L361.2 73.7001L364.7 71.1001ZM383.1 79.1001H379.1V35.7001H383.1V79.1001ZM408 39.6001H392.6V35.9001H427.4V39.6001H412V79.1001H407.9V39.6001H408ZM464.5 68.7001H439.6L435 79.1001H430.6L450 35.7001H454.1L473.5 79.1001H469.1L464.5 68.7001ZM441.2 64.8001H462.8L452 40.3L441.2 64.8001ZM485 75.2001H508.9V79.1001H480.9V35.7001H485V75.2001Z" fill="black"/>
<path fill-rule="evenodd" clip-rule="evenodd" d="M298.4 128.5H273.5L268.9 138.9H264.5L283.9 95.6001H288L307.4 138.9H303L298.4 128.5ZM275.1 124.7H296.7L285.9 100.1L275.1 124.7ZM344.7 102.8L341.3 104.8L341.1 104.5L338.5 101.6L335.5 99.9001L332.1 99.1001L328.5 98.9001L325.3 99.1001L321.9 99.9001L318.9 101.4L316.8 103.7L316 107L316.9 110.1L319.5 112.2L323.6 113.6L328.6 114.6L333.5 115.6L338.1 117L342 119.1L344.7 122.4L345.7 127.2L344.6 132.3L341.7 135.8L337.6 138L333 139.1L328.5 139.4L323.5 139.1L318.5 137.4L314.1 134.5L310.8 130.2L310.6 129.8L314.2 128L314.4 128.3L316.9 131.6L320.4 134L324.5 135.4L328.5 135.9L331.9 135.7L335.4 134.9L338.6 133.4L340.8 130.9L341.6 127.3L340.9 124.2L338.9 122L335.8 120.4L332 119.3L327.9 118.4L323.3 117.4L319 116.1L315.4 114.2L312.9 111.3L312 107.1L313 102.2L315.8 98.7001L319.7 96.4001L324.1 95.2001L328.5 94.8001L332.9 95.1001L337.1 96.1001L340.9 98.4001L344.3 102.3L344.7 102.8ZM385.5 102.8L382.1 104.8L381.9 104.5L379.3 101.6L376.3 99.9001L372.9 99.1001L369.4 98.9001L366.2 99.1001L362.8 99.9001L359.8 101.4L357.7 103.7L356.9 107L357.8 110.1L360.4 112.2L364.5 113.6L369.5 114.6L374.4 115.6L379 117L382.9 119.1L385.6 122.4L386.6 127.2L385.5 132.3L382.6 135.8L378.5 138L373.9 139.1L369.4 139.4L364.3 138.9L359.3 137.2L354.9 134.3L351.6 130L351.4 129.6L355 127.8L355.2 128.1L357.7 131.4L361.2 133.8L365.3 135.2L369.3 135.7L372.7 135.5L376.2 134.7L379.4 133.2L381.6 130.7L382.4 127.1L381.7 124L379.7 121.8L376.7 120.2L372.9 119.1L368.8 118.2L364.2 117.2L359.9 115.9L356.3 114L353.8 111.1L352.9 106.9L353.9 102L356.7 98.5001L360.6 96.2001L365.1 95.0001L369.5 94.6001L373.9 94.9001L378.1 95.9001L381.9 98.2001L385.3 102.1L385.5 102.8ZM399.1 99.5001V115.3H424V119.1H399.1V135.1H425.9V139.1H395V95.8001H425.1V99.7001H399.1V99.5001ZM449.3 99.4001H433.9V95.7001H468.7V99.4001H453.3V138.9H449.2V99.4001H449.3Z" fill="black"/>
</svg>