<svg width="317" height="649" viewBox="0 0 317 649" fill="none" xmlns="http://www.w3.org/2000/svg">
<path d="M103.482 17.2596L289.162 124.571C290.809 125.542 292.175 126.927 293.123 128.589C294.072 130.251 294.57 132.132 294.569 134.046V593.014C294.569 601.434 290.351 614.347 273.938 610.99L102.21 513.073C88.9338 505.709 75.1709 491.713 69.3845 477.69C66.6805 471.491 63.9766 463.451 63.9766 459.065L63.5171 29.1439C63.6523 11.0602 87.8257 8.21772 103.482 17.2596Z" fill="#07091B" stroke="white" stroke-opacity="0.6" stroke-width="0.5" stroke-linecap="round" stroke-linejoin="round"/>
<path d="M71.4395 12.1702C77.8208 8.46143 86.6627 8.97578 96.3969 14.6066L263.501 111.17C282.861 122.351 298.652 149.476 298.49 171.783L298.652 616.134C298.652 627.206 294.732 635.084 288.431 638.657L303.493 629.859C309.793 626.177 313.714 618.408 313.741 607.335L313.551 162.985C313.551 140.678 297.95 113.553 278.589 102.345L111.485 5.80842C101.751 0.177566 92.9091 -0.336785 86.5278 3.372L71.4395 12.1702Z" fill="#07091B" stroke="white" stroke-opacity="0.6" stroke-width="0.5" stroke-linecap="round" stroke-linejoin="round"/>
<path d="M96.451 14.6066L263.555 111.17C282.915 122.351 298.706 149.476 298.544 171.783L298.707 616.133C298.707 638.413 282.888 647.401 263.555 636.22L96.451 539.684C77.0908 528.503 61.2998 501.324 61.4621 479.044L61.2997 34.6936C61.2997 12.3867 77.0367 3.45316 96.451 14.6066Z" fill="#07091B" stroke="white" stroke-opacity="0.6" stroke-width="0.5" stroke-linecap="round" stroke-linejoin="round"/>
<path d="M305.98 255.353V292.278C305.98 294.985 307.927 296.177 310.361 294.769L311.55 294.092C312.819 293.266 313.875 292.151 314.632 290.838C315.388 289.526 315.824 288.053 315.903 286.539V249.614C315.903 246.907 313.903 245.743 311.523 247.123L310.307 247.8C309.046 248.632 307.997 249.749 307.246 251.061C306.494 252.373 306.061 253.843 305.98 255.353V255.353Z" fill="#07091B" stroke="white" stroke-opacity="0.6" stroke-width="0.5" stroke-linecap="round" stroke-linejoin="round"/>
<path d="M305.98 198.99V235.943C305.98 238.65 307.927 239.841 310.361 238.433L311.55 237.729C312.819 236.909 313.874 235.799 314.631 234.491C315.388 233.183 315.824 231.713 315.903 230.203V193.251C315.903 190.544 313.903 189.38 311.523 190.76L310.307 191.464C309.049 192.294 308.003 193.407 307.251 194.713C306.5 196.02 306.065 197.485 305.98 198.99V198.99Z" fill="#07091B" stroke="white" stroke-opacity="0.6" stroke-width="0.5" stroke-linecap="round" stroke-linejoin="round"/>
<path fill-rule="evenodd" clip-rule="evenodd" d="M98.2431 25.6618C90.4283 21.7398 84.954 20.9961 80.7031 23.2791C76.4452 25.5663 74.4342 30.0634 73.7379 38.8566C73.4995 41.8651 73.4668 53.2321 73.0528 276.948C72.7734 427.926 72.7154 483.983 72.8361 486.559C73.1956 494.229 74.0624 499.086 76.1043 504.872C79.2676 513.835 84.8512 521.826 92.4141 528.217C95.4831 530.811 98.6486 533.039 103.807 536.235C108.702 539.269 257.036 626.107 260.03 627.692C266.545 631.141 270.677 632.542 274.632 632.645C280.737 632.806 285.024 629.031 286.669 622.051C287.532 618.383 286.675 614.927 286.669 605.451C281.626 590.596 283.669 173.335 283.499 168.954C283.122 159.159 281.903 153.173 278.9 146.362C275.188 137.944 269.559 130.818 261.925 124.874C257.987 121.808 254.144 119.354 238.438 109.879C225.808 102.259 224.549 101.535 223.93 101.526C222.647 101.508 222.375 102.149 222.235 105.509C222.121 108.262 221.875 109.759 221.35 110.906C219.898 114.077 216.643 115.119 212.772 113.655C211.079 113.014 209.012 111.791 176.877 92.4089C146.255 73.9392 145.661 73.5682 143.709 71.6855C139.93 68.0423 137.146 63.3209 135.969 58.5624C135.606 57.0954 135.495 56.2436 135.363 53.9435C135.149 50.1951 135.012 49.3582 134.439 48.2997C133.866 47.2409 133.382 46.6735 132.503 46.0319C131.523 45.3158 106.975 30.5159 103.202 28.366C101.453 27.3697 99.2212 26.1527 98.2431 25.6618Z" fill="white" fill-opacity="0.05"/>
<path opacity="0.8" d="M32.5795 503.625L269.645 648.088V201.742L32.5795 57.3081V503.625Z" fill="#07091B"/>
<path opacity="0.1" d="M32.5795 503.625L269.645 648.088V201.742L32.5795 57.3081V503.625Z" fill="white" stroke="white" stroke-width="0.5" stroke-linecap="round" stroke-linejoin="round"/>
<path d="M32.5795 58.95L269.645 203.413V175.456C269.645 172.665 268.191 170.076 265.807 168.624L37.1404 29.3073C35.1412 28.0893 32.5795 29.5283 32.5795 31.8693V58.95Z" fill="#686E8E"/>
<g style="mix-blend-mode:lighten" filter="url(#filter0_f_2732_137427)">
<path fill-rule="evenodd" clip-rule="evenodd" d="M30.5567 148.319L20.0514 154.384L30.9829 160.696C30.6729 162.086 30.5092 163.625 30.5092 165.303L30.5092 269.989C30.5092 275.354 34.276 281.878 38.9226 284.561L231.756 395.893V408.976L246.323 400.566C248.646 399.224 250.53 395.962 250.53 393.279V391.12C250.562 390.68 250.578 390.227 250.578 389.759V280.216C250.578 274.85 246.811 268.326 242.165 265.643L239.446 264.074L239.454 264.069L38.97 148.319C36.6467 146.978 32.8799 146.978 30.5567 148.319Z" fill="url(#paint0_linear_2732_137427)"/>
</g>
<path fill-rule="evenodd" clip-rule="evenodd" d="M30.5565 148.319L20.0513 154.384L30.9827 160.696C30.6728 162.086 30.5091 163.625 30.5091 165.303L30.5091 269.989C30.5091 275.354 34.2759 281.878 38.9225 284.561L231.756 395.893V408.976L246.323 400.566C248.646 399.224 250.53 395.962 250.53 393.279V391.12C250.562 390.68 250.578 390.227 250.578 389.759V280.216C250.578 274.85 246.811 268.326 242.165 265.643L239.446 264.074L239.454 264.069L38.9699 148.319C36.6466 146.978 32.8798 146.978 30.5565 148.319Z" fill="url(#paint1_linear_2732_137427)"/>
<g style="mix-blend-mode:overlay">
<path fill-rule="evenodd" clip-rule="evenodd" d="M30.5567 148.319L20.0514 154.384L30.9829 160.696C30.6729 162.086 30.5092 163.625 30.5092 165.303L30.5092 269.989C30.5092 275.354 34.276 281.878 38.9226 284.561L231.756 395.893V408.976L246.323 400.566C248.646 399.224 250.53 395.962 250.53 393.279V391.12C250.562 390.68 250.578 390.227 250.578 389.759V280.216C250.578 274.85 246.811 268.326 242.165 265.643L239.446 264.074L239.454 264.069L38.97 148.319C36.6467 146.978 32.8799 146.978 30.5567 148.319Z" fill="#07091B" fill-opacity="0.2"/>
</g>
<g filter="url(#filter1_i_2732_137427)">
<rect width="251.835" height="136.26" rx="9.7149" transform="matrix(0.866025 0.5 -2.20305e-08 1 17 150.623)" fill="url(#paint2_linear_2732_137427)"/>
</g>
<g style="mix-blend-mode:overlay" filter="url(#filter2_i_2732_137427)">
<rect width="222.954" height="110.933" rx="9.7149" transform="matrix(0.866025 0.5 -2.20305e-08 1 28.0469 169.71)" fill="#07091B" fill-opacity="0.2"/>
</g>
<rect width="30.9361" height="21.3616" rx="2.78722" transform="matrix(0.866025 0.5 -2.20305e-08 1 82.0085 238.203)" fill="white" fill-opacity="0.05"/>
<path d="M88.6296 249.295L90.6645 250.47C90.8576 250.581 91.0531 250.714 91.251 250.867C91.449 251.02 91.6276 251.199 91.7869 251.402C91.9462 251.6 92.0741 251.824 92.1707 252.075C92.2721 252.323 92.3228 252.601 92.3228 252.907C92.3228 253.191 92.2721 253.416 92.1707 253.58C92.0693 253.745 91.9028 253.824 91.671 253.819C91.9993 254.097 92.231 254.398 92.3662 254.722C92.5062 255.042 92.5762 255.378 92.5762 255.729C92.5762 256.08 92.511 256.335 92.3807 256.494C92.2552 256.656 92.0934 256.744 91.8955 256.758C91.6976 256.772 91.4755 256.733 91.2293 256.641C90.9879 256.546 90.749 256.43 90.5124 256.294L88.6296 255.207L88.6296 249.295ZM89.4696 250.649L89.4696 252.272L90.4255 252.823C90.5462 252.893 90.6717 252.957 90.8021 253.016C90.9324 253.069 91.0483 253.097 91.1497 253.099C91.2559 253.099 91.3428 253.063 91.4103 252.991C91.4779 252.918 91.5117 252.787 91.5117 252.598C91.5117 252.425 91.4852 252.273 91.4321 252.142C91.379 252.005 91.309 251.887 91.2221 251.787C91.1352 251.681 91.0338 251.589 90.9179 251.511C90.8069 251.43 90.691 251.355 90.5703 251.285L89.4696 250.649ZM90.4979 255.424C90.6331 255.502 90.7731 255.574 90.9179 255.641C91.0628 255.708 91.1955 255.746 91.3162 255.754C91.4369 255.763 91.5359 255.731 91.6131 255.658C91.6952 255.583 91.7362 255.442 91.7362 255.236C91.7362 255.069 91.7048 254.914 91.6421 254.772C91.5841 254.627 91.5069 254.499 91.4103 254.387C91.3138 254.27 91.2052 254.166 91.0845 254.074C90.9686 253.984 90.8503 253.905 90.7297 253.835C90.6234 253.774 90.5172 253.713 90.411 253.651L89.7883 253.3C89.6821 253.239 89.5759 253.177 89.4696 253.116L89.4696 254.83L90.4979 255.424ZM94.5815 258.643L94.5815 253.601L92.9594 252.664L92.9594 251.795L97.0508 254.157L97.0508 255.026L95.4215 254.086L95.4215 259.128L94.5815 258.643ZM99.8388 256.561C99.5685 256.405 99.3343 256.328 99.1364 256.331C98.9433 256.336 98.784 256.401 98.6585 256.523C98.533 256.646 98.4388 256.82 98.3761 257.046C98.3181 257.269 98.2892 257.522 98.2892 257.807C98.2892 258.097 98.3205 258.391 98.3833 258.689C98.4461 258.987 98.5402 259.273 98.6657 259.546C98.7961 259.816 98.9602 260.067 99.1581 260.299C99.3561 260.53 99.5902 260.724 99.8605 260.88C100.194 261.072 100.471 261.149 100.693 261.11C100.92 261.073 101.063 260.93 101.121 260.679L101.961 261.164C101.922 261.426 101.84 261.632 101.714 261.783C101.594 261.936 101.442 262.038 101.258 262.088C101.075 262.133 100.862 262.127 100.621 262.071C100.38 262.01 100.121 261.9 99.8461 261.741C99.4454 261.51 99.093 261.231 98.7888 260.905C98.4895 260.581 98.2385 260.227 98.0357 259.843C97.833 259.458 97.6809 259.053 97.5795 258.626C97.4781 258.2 97.4274 257.766 97.4274 257.326C97.4274 256.897 97.4781 256.527 97.5795 256.218C97.6857 255.906 97.8402 255.675 98.043 255.524C98.2457 255.368 98.4967 255.301 98.7961 255.323C99.1002 255.343 99.4526 255.468 99.8533 255.7C100.418 256.026 100.884 256.448 101.251 256.966C101.618 257.485 101.84 258.065 101.917 258.706L101.092 258.229C101.029 257.903 100.889 257.594 100.672 257.301C100.454 257.003 100.177 256.756 99.8388 256.561Z" fill="white"/>
<rect x="0.216506" y="0.375" width="41.3082" height="41.3082" rx="3.93082" transform="matrix(0.866025 0.5 -2.20305e-08 1 38.1511 212.132)" stroke="#E7E7E9" stroke-width="0.5"/>
<path d="M62.6142 245.775C62.9569 243.328 61.2127 240.899 58.8279 238.574L59.6015 235.437L57.7126 233.803L56.9595 236.857C56.4629 236.427 55.9529 235.998 55.4461 235.572L56.2047 232.498L54.3169 230.865L53.5428 234C53.1317 233.654 52.7283 233.314 52.3366 232.976L52.3388 232.966L49.7339 230.711L49.2314 232.75C49.2314 232.75 50.6328 233.93 50.6032 233.936C51.3682 234.598 51.5065 235.263 51.4834 235.713L50.6022 239.286C50.6549 239.332 50.7232 239.394 50.7985 239.472C50.7356 239.418 50.6683 239.359 50.5989 239.3L49.3637 244.305C49.2701 244.519 49.0329 244.785 48.4981 244.323C48.517 244.366 47.1252 243.135 47.1252 243.135L46.1875 245.09L48.6455 247.217C49.1028 247.613 49.5509 248.01 49.9921 248.395L49.2104 251.568L51.0971 253.201L51.8713 250.062C52.3866 250.521 52.887 250.959 53.3765 251.382L52.6051 254.506L54.4939 256.14L55.2756 252.974C58.4965 255.537 60.9185 256.652 61.9379 253.877C62.7594 251.642 61.8971 249.582 60.2024 247.585C61.4365 247.969 62.3662 247.568 62.6142 245.775V245.775ZM58.2985 250.271C57.7148 252.643 53.7655 248.899 52.4851 247.792L53.5223 243.59C54.8027 244.698 58.9086 247.799 58.2985 250.271V250.271ZM58.8828 243.582C58.3502 245.738 55.0631 242.588 53.9968 241.666L54.9372 237.854C56.0035 238.777 59.4374 241.332 58.8828 243.582V243.582Z" fill="white"/>
<path d="M82.9547 269.509L85.6678 271.076C85.9253 271.225 86.186 271.401 86.4499 271.605C86.7138 271.81 86.9519 272.048 87.1643 272.319C87.3768 272.583 87.5473 272.882 87.6761 273.216C87.8112 273.547 87.8788 273.917 87.8788 274.326C87.8788 274.705 87.8112 275.004 87.6761 275.223C87.5409 275.443 87.3188 275.548 87.0099 275.541C87.4476 275.913 87.7565 276.314 87.9368 276.745C88.1234 277.172 88.2168 277.62 88.2168 278.089C88.2168 278.557 88.1299 278.897 87.9561 279.109C87.7887 279.324 87.5731 279.441 87.3092 279.46C87.0453 279.478 86.7492 279.426 86.4209 279.304C86.0991 279.177 85.7804 279.023 85.465 278.841L82.9547 277.392L82.9547 269.509ZM84.0747 271.316L84.0747 273.478L85.3492 274.214C85.5101 274.307 85.6774 274.393 85.8512 274.471C86.025 274.541 86.1795 274.578 86.3147 274.582C86.4563 274.582 86.5722 274.534 86.6623 274.437C86.7524 274.341 86.7974 274.166 86.7974 273.913C86.7974 273.683 86.762 273.48 86.6912 273.306C86.6204 273.124 86.5271 272.966 86.4112 272.832C86.2954 272.691 86.1602 272.568 86.0057 272.464C85.8577 272.356 85.7032 272.256 85.5423 272.163L84.0747 271.316ZM85.4457 277.682C85.626 277.786 85.8126 277.882 86.0057 277.971C86.1988 278.061 86.3758 278.111 86.5368 278.122C86.6977 278.133 86.8296 278.09 86.9326 277.994C87.042 277.893 87.0968 277.706 87.0968 277.431C87.0968 277.208 87.0549 277.002 86.9712 276.812C86.894 276.619 86.791 276.448 86.6623 276.299C86.5335 276.143 86.3887 276.004 86.2278 275.881C86.0733 275.762 85.9156 275.656 85.7547 275.563C85.6131 275.482 85.4715 275.4 85.3299 275.318L84.4995 274.85C84.3579 274.768 84.2163 274.686 84.0747 274.604L84.0747 276.89L85.4457 277.682ZM89.867 273.066C90.0666 273.181 90.2307 273.346 90.3595 273.562C90.4946 273.781 90.5622 274.013 90.5622 274.258C90.5622 274.496 90.4946 274.647 90.3595 274.71C90.2307 274.777 90.0666 274.753 89.867 274.638C89.6546 274.515 89.4841 274.346 89.3553 274.13C89.2266 273.915 89.1622 273.688 89.1622 273.45C89.1622 273.205 89.2266 273.049 89.3553 272.982C89.4841 272.915 89.6546 272.943 89.867 273.066ZM89.307 281.059L89.307 275.184L90.4077 275.819L90.4077 281.695L89.307 281.059ZM93.2071 277.435L94.4912 278.177L94.4912 279.281L93.2071 278.539L93.2071 281.226C93.2071 281.561 93.2586 281.839 93.3615 282.062C93.4645 282.285 93.6609 282.48 93.9505 282.648L94.4526 282.937L94.4526 284.03L93.854 283.684C93.2296 283.324 92.7822 282.917 92.5119 282.464C92.248 282.014 92.116 281.451 92.116 280.775L92.116 277.909L91.3146 277.447L91.3146 276.343L92.116 276.806L92.116 275.144L93.2071 275.774L93.2071 277.435ZM97.5611 285.903C97.1492 285.665 96.7919 285.388 96.4894 285.072C96.1869 284.749 95.9326 284.398 95.7266 284.019C95.5271 283.636 95.3758 283.233 95.2728 282.809C95.1763 282.382 95.128 281.945 95.128 281.499C95.128 281.053 95.1795 280.674 95.2825 280.362C95.3919 280.053 95.5528 279.827 95.7652 279.682C95.9777 279.537 96.2351 279.474 96.5377 279.492C96.8402 279.511 97.191 279.635 97.5901 279.866C98.1758 280.204 98.6618 280.641 99.048 281.176C99.4342 281.703 99.6788 282.331 99.7818 283.06L98.6521 282.408C98.5942 282.114 98.4687 281.845 98.2756 281.599C98.0825 281.354 97.8475 281.152 97.5708 280.992C97.3262 280.85 97.117 280.782 96.9432 280.785C96.7694 280.789 96.6278 280.849 96.5183 280.964C96.4089 281.079 96.3285 281.241 96.277 281.449C96.2319 281.653 96.2094 281.882 96.2094 282.134C96.2094 282.395 96.2351 282.655 96.2866 282.915C96.3381 283.175 96.4186 283.422 96.528 283.656C96.6374 283.883 96.779 284.099 96.9528 284.303C97.1266 284.5 97.3358 284.669 97.5804 284.81C97.8701 284.977 98.1082 285.041 98.2949 285C98.488 284.963 98.6103 284.836 98.6618 284.621L99.8011 285.278C99.7496 285.583 99.6531 285.817 99.5115 285.981C99.3763 286.148 99.2089 286.252 99.0094 286.293C98.8098 286.334 98.5878 286.321 98.3432 286.254C98.0986 286.18 97.8379 286.063 97.5611 285.903ZM103.031 283.007C103.437 283.241 103.794 283.522 104.103 283.849C104.412 284.176 104.672 284.534 104.885 284.925C105.104 285.311 105.268 285.722 105.377 286.157C105.487 286.591 105.541 287.035 105.541 287.489C105.541 287.95 105.487 288.334 105.377 288.643C105.274 288.947 105.117 289.172 104.904 289.317C104.692 289.462 104.428 289.514 104.112 289.473C103.803 289.436 103.443 289.299 103.031 289.061C102.625 288.827 102.268 288.55 101.959 288.23C101.65 287.903 101.39 287.548 101.177 287.166C100.971 286.779 100.814 286.368 100.704 285.934C100.601 285.502 100.55 285.06 100.55 284.607C100.55 284.153 100.601 283.771 100.704 283.459C100.814 283.15 100.974 282.927 101.187 282.79C101.399 282.645 101.66 282.587 101.969 282.617C102.278 282.647 102.632 282.777 103.031 283.007ZM103.031 287.957C103.282 288.102 103.494 288.176 103.668 288.18C103.848 288.18 103.993 288.126 104.103 288.018C104.219 287.914 104.302 287.762 104.354 287.561C104.412 287.364 104.441 287.132 104.441 286.865C104.441 286.597 104.412 286.331 104.354 286.067C104.302 285.8 104.219 285.547 104.103 285.309C103.993 285.075 103.848 284.858 103.668 284.657C103.494 284.46 103.282 284.289 103.031 284.144C102.786 284.003 102.577 283.93 102.403 283.927C102.23 283.923 102.085 283.973 101.969 284.077C101.853 284.181 101.766 284.336 101.708 284.54C101.657 284.741 101.631 284.975 101.631 285.242C101.631 285.51 101.657 285.774 101.708 286.034C101.766 286.298 101.85 286.547 101.959 286.781C102.075 287.019 102.22 287.24 102.394 287.444C102.574 287.645 102.786 287.816 103.031 287.957ZM107.169 283.055C107.369 283.17 107.533 283.335 107.662 283.551C107.797 283.77 107.864 284.003 107.864 284.248C107.864 284.486 107.797 284.636 107.662 284.699C107.533 284.766 107.369 284.742 107.169 284.627C106.957 284.504 106.786 284.335 106.657 284.12C106.529 283.904 106.464 283.677 106.464 283.439C106.464 283.194 106.529 283.038 106.657 282.971C106.786 282.904 106.957 282.932 107.169 283.055ZM106.609 291.049L106.609 285.173L107.71 285.809L107.71 291.684L106.609 291.049ZM108.984 292.42L108.984 286.544L110.036 287.152L110.094 287.999C110.281 287.802 110.512 287.709 110.789 287.72C111.072 287.728 111.372 287.822 111.687 288.005C112.048 288.213 112.35 288.458 112.595 288.74C112.846 289.027 113.048 289.337 113.203 289.671C113.364 290.009 113.476 290.364 113.541 290.736C113.612 291.111 113.647 291.496 113.647 291.89L113.647 295.112L112.546 294.476L112.546 291.444C112.546 291.191 112.53 290.948 112.498 290.714C112.472 290.483 112.418 290.262 112.334 290.05C112.25 289.831 112.131 289.629 111.977 289.443C111.829 289.261 111.636 289.101 111.397 288.963C111.172 288.833 110.966 288.778 110.779 288.796C110.599 288.818 110.458 288.9 110.355 289.041C110.258 289.186 110.187 289.368 110.142 289.588C110.104 289.811 110.084 290.034 110.084 290.257L110.084 293.055L108.984 292.42Z" fill="white"/>
<path d="M144.646 301.072C144.646 302.186 144.546 303.144 144.345 303.945C144.156 304.74 143.855 305.338 143.441 305.738C143.04 306.145 142.532 306.345 141.917 306.337C141.303 306.329 140.576 306.075 139.737 305.576C138.899 305.077 138.172 304.473 137.558 303.763C136.943 303.04 136.435 302.243 136.034 301.371C135.632 300.5 135.331 299.558 135.13 298.544C134.929 297.531 134.829 296.474 134.829 295.374C134.829 294.247 134.923 293.272 135.112 292.449C135.301 291.627 135.597 290.998 135.998 290.564C136.4 290.129 136.908 289.915 137.522 289.924C138.148 289.925 138.887 290.179 139.737 290.685C140.564 291.177 141.285 291.785 141.899 292.508C142.514 293.231 143.022 294.042 143.423 294.941C143.837 295.847 144.144 296.82 144.345 297.861C144.546 298.888 144.646 299.958 144.646 301.072ZM136.867 296.443C136.867 297.199 136.914 297.928 137.008 298.631C137.103 299.333 137.262 299.992 137.487 300.607C137.711 301.208 138.007 301.755 138.373 302.248C138.739 302.727 139.194 303.128 139.737 303.452C140.269 303.768 140.718 303.905 141.084 303.861C141.451 303.804 141.746 303.609 141.97 303.275C142.195 302.927 142.354 302.458 142.449 301.868C142.543 301.278 142.591 300.605 142.591 299.849C142.591 299.106 142.543 298.384 142.449 297.681C142.354 296.965 142.195 296.307 141.97 295.705C141.746 295.091 141.451 294.537 141.084 294.044C140.718 293.551 140.269 293.146 139.737 292.83C139.194 292.506 138.739 292.373 138.373 292.43C138.007 292.487 137.711 292.69 137.487 293.037C137.262 293.371 137.103 293.84 137.008 294.444C136.914 295.034 136.867 295.7 136.867 296.443ZM147.946 307.47C148.324 307.695 148.632 308.016 148.868 308.431C149.116 308.854 149.24 309.299 149.24 309.766C149.24 310.248 149.116 310.545 148.868 310.659C148.632 310.779 148.324 310.727 147.946 310.502C147.568 310.277 147.255 309.96 147.007 309.552C146.771 309.15 146.653 308.708 146.653 308.227C146.653 307.759 146.771 307.458 147.007 307.324C147.255 307.197 147.568 307.245 147.946 307.47ZM154.575 308.837C154.859 308.717 155.172 308.587 155.514 308.447C155.869 308.314 156.2 308.154 156.507 307.965C156.826 307.77 157.086 307.512 157.287 307.192C157.499 306.878 157.606 306.467 157.606 305.958C157.606 305.216 157.416 304.505 157.038 303.827C156.66 303.148 156.117 302.598 155.408 302.176C154.841 301.838 154.363 301.705 153.973 301.775C153.583 301.846 153.341 302.107 153.246 302.56L151.226 301.358C151.273 300.753 151.421 300.277 151.669 299.93C151.929 299.59 152.254 299.377 152.644 299.293C153.033 299.209 153.459 299.235 153.92 299.372C154.392 299.502 154.93 299.746 155.532 300.105C156.099 300.442 156.631 300.848 157.127 301.322C157.623 301.796 158.054 302.32 158.421 302.896C158.799 303.478 159.094 304.108 159.307 304.784C159.531 305.454 159.643 306.154 159.643 306.882C159.643 307.46 159.578 307.951 159.449 308.354C159.319 308.758 159.141 309.1 158.917 309.379C158.692 309.658 158.433 309.888 158.137 310.07C157.854 310.258 157.552 310.416 157.233 310.543C156.808 310.716 156.43 310.862 156.099 310.981C155.78 311.094 155.491 311.197 155.231 311.29C154.971 311.382 154.735 311.469 154.522 311.548C154.309 311.614 154.109 311.687 153.92 311.767L159.643 315.174L159.643 317.298L151.12 312.226L151.12 310.266L154.575 308.837ZM164.595 314.8C164.879 314.68 165.192 314.55 165.534 314.41C165.889 314.277 166.22 314.116 166.527 313.928C166.846 313.733 167.106 313.475 167.307 313.154C167.519 312.841 167.626 312.43 167.626 311.921C167.626 311.179 167.437 310.468 167.059 309.789C166.68 309.111 166.137 308.56 165.428 308.138C164.861 307.801 164.383 307.667 163.993 307.738C163.603 307.808 163.361 308.07 163.266 308.523L161.246 307.32C161.293 306.716 161.441 306.24 161.689 305.893C161.949 305.552 162.274 305.34 162.664 305.256C163.054 305.172 163.479 305.198 163.94 305.334C164.412 305.464 164.95 305.709 165.552 306.067C166.119 306.405 166.651 306.81 167.147 307.284C167.643 307.758 168.075 308.283 168.441 308.859C168.819 309.441 169.114 310.071 169.327 310.747C169.551 311.417 169.664 312.116 169.664 312.845C169.664 313.423 169.599 313.913 169.469 314.317C169.339 314.721 169.161 315.062 168.937 315.341C168.712 315.62 168.453 315.851 168.157 316.032C167.874 316.221 167.572 316.379 167.253 316.505C166.828 316.678 166.45 316.825 166.119 316.944C165.8 317.057 165.511 317.16 165.251 317.252C164.991 317.345 164.755 317.431 164.542 317.511C164.329 317.577 164.129 317.65 163.94 317.73L169.664 321.136L169.664 323.261L161.14 318.188L161.14 316.229L164.595 314.8ZM175.419 326.686L173.363 325.462L173.363 314.242L170.812 312.724L170.812 311.094C171.509 311.482 172.123 311.717 172.655 311.799C173.186 311.868 173.606 311.671 173.913 311.207L175.419 312.104L175.419 326.686ZM178.73 328.656L183.568 319.098L177.348 315.396L177.348 313.251L185.889 318.334L185.889 320.191L181.016 330.016L178.73 328.656ZM194.312 323.346L194.312 333.019L195.747 333.874L195.747 335.977L194.312 335.123L194.312 337.928L192.274 336.715L192.274 333.91L185.805 330.061L185.805 328.349L191.671 321.775L194.312 323.346ZM188.18 329.371L192.274 331.807L192.274 324.67L188.18 329.371ZM199.201 333.124C199.59 332.778 200.057 332.63 200.6 332.678C201.144 332.726 201.723 332.933 202.337 333.299C202.951 333.665 203.513 334.109 204.021 334.631C204.529 335.153 204.96 335.719 205.314 336.329C205.669 336.938 205.94 337.595 206.129 338.299C206.33 338.996 206.431 339.702 206.431 340.417C206.431 341.146 206.318 341.739 206.094 342.196C205.881 342.661 205.58 342.991 205.19 343.185C204.8 343.379 204.346 343.439 203.826 343.363C203.306 343.287 202.745 343.07 202.142 342.712C201.244 342.177 200.482 341.538 199.856 340.794C199.242 340.044 198.74 339.243 198.35 338.393C197.972 337.535 197.694 336.641 197.517 335.711C197.352 334.773 197.263 333.848 197.251 332.933C197.251 332.314 197.281 331.713 197.34 331.13C197.411 330.553 197.517 330.025 197.659 329.546C197.812 329.06 198.007 328.632 198.244 328.264C198.492 327.903 198.793 327.629 199.147 327.441C199.525 327.24 199.98 327.173 200.512 327.242C201.044 327.311 201.652 327.549 202.337 327.957C203.365 328.569 204.245 329.388 204.978 330.415C205.71 331.442 206.177 332.628 206.378 333.971L204.322 332.748C204.157 332.14 203.885 331.607 203.507 331.149C203.129 330.676 202.715 330.306 202.266 330.039C201.888 329.814 201.54 329.683 201.221 329.644C200.914 329.612 200.642 329.664 200.406 329.798C200.193 329.919 200.01 330.092 199.856 330.317C199.703 330.542 199.579 330.805 199.484 331.106C199.39 331.407 199.319 331.73 199.271 332.073C199.224 332.416 199.201 332.766 199.201 333.124ZM204.375 339.359C204.375 338.534 204.162 337.747 203.737 336.999C203.324 336.244 202.762 335.656 202.054 335.234C201.723 335.037 201.41 334.92 201.114 334.881C200.831 334.836 200.577 334.864 200.352 334.964C200.14 335.071 199.968 335.251 199.838 335.504C199.72 335.764 199.661 336.086 199.661 336.471C199.661 336.828 199.72 337.207 199.838 337.608C199.957 337.994 200.122 338.375 200.335 338.749C200.547 339.109 200.795 339.449 201.079 339.769C201.374 340.082 201.693 340.341 202.036 340.545C202.721 340.952 203.282 341.053 203.719 340.845C204.157 340.624 204.375 340.129 204.375 339.359Z" fill="white"/>
<rect x="0.216506" y="0.375" width="222.454" height="110.433" rx="9.4649" transform="matrix(0.866025 0.5 -2.20305e-08 1 28.0759 169.602)" stroke="white" stroke-width="0.5"/>
<path d="M67.3598 343.436L72.3733 346.508C73.9694 347.486 75.2177 348.715 76.1181 350.195C77.0185 351.659 77.4687 353.351 77.4687 355.271C77.4687 356.247 77.3186 357.011 77.0185 357.563C76.732 358.123 76.3296 358.485 75.8111 358.647C75.3746 358.795 74.8289 358.789 74.1741 358.628C73.5193 358.466 72.7962 358.143 72.005 357.659L69.1401 355.903V361.495L67.3598 360.404V343.436ZM71.9231 355.712C72.4415 356.03 72.9463 356.267 73.4374 356.424C73.9285 356.565 74.331 356.564 74.6447 356.42C74.9585 356.292 75.2041 356.051 75.3814 355.696C75.5588 355.34 75.6474 354.795 75.6474 354.059C75.6474 351.627 74.5288 349.725 72.2915 348.354L69.1401 346.423V354.007L71.9231 355.712ZM86.5411 370.55C86.3092 370.776 86.0432 370.909 85.7431 370.949C85.4429 370.989 85.1292 370.973 84.8018 370.9C84.488 370.836 84.1674 370.728 83.84 370.575C83.5262 370.431 83.2124 370.262 82.8987 370.07C82.3939 369.761 81.9164 369.396 81.4662 368.976C81.016 368.557 80.6068 368.074 80.2384 367.528C79.8837 366.991 79.5972 366.415 79.379 365.801C79.1743 365.196 79.072 364.589 79.072 363.981C79.072 363.261 79.1812 362.728 79.3994 362.382C79.6314 362.028 79.9383 361.816 80.3203 361.746C80.7023 361.676 81.1388 361.736 81.6299 361.925C82.1347 362.106 82.6667 362.368 83.2261 362.711L86.3979 364.655C86.3979 363.583 86.2001 362.613 85.8045 361.747C85.4088 360.864 84.7404 360.119 83.7991 359.51C83.2261 359.159 82.7213 358.962 82.2848 358.918C81.8482 358.874 81.5481 359.059 81.3844 359.47L79.5222 358.329C79.6177 357.812 79.8087 357.441 80.0952 357.216C80.3817 356.976 80.7227 356.849 81.1184 356.835C81.514 356.806 81.9437 356.869 82.4075 357.025C82.8714 357.181 83.3352 357.402 83.7991 357.686C84.6039 358.179 85.2792 358.753 85.8249 359.407C86.3843 360.054 86.8345 360.738 87.1755 361.459C87.5166 362.164 87.7553 362.918 87.8917 363.722C88.0282 364.526 88.0964 365.375 88.0964 366.271V373.111L86.6435 372.221L86.5411 370.55ZM84.4948 365.192C84.1674 364.992 83.7854 364.766 83.3489 364.514C82.926 364.255 82.5167 364.052 82.1211 363.906C81.7254 363.759 81.4048 363.763 81.1593 363.916C80.9274 364.078 80.8114 364.407 80.8114 364.903C80.8114 365.271 80.8728 365.621 80.9956 365.952C81.1184 366.283 81.2821 366.6 81.4867 366.901C81.705 367.211 81.9505 367.489 82.2234 367.736C82.4962 367.984 82.7759 368.195 83.0624 368.371C84.0855 368.998 84.8904 369.203 85.4771 368.986C86.0773 368.762 86.3843 368.094 86.3979 366.983V366.359L84.4948 365.192ZM94.6382 366.152C94.3927 366.002 94.1403 365.871 93.8811 365.76C93.6355 365.642 93.39 365.571 93.1444 365.549C92.9125 365.519 92.7079 365.569 92.5305 365.701C92.3668 365.824 92.2781 366.074 92.2645 366.45C92.2645 366.994 92.435 367.506 92.7761 367.987C93.1308 368.476 93.5878 368.957 94.1471 369.427C94.379 369.633 94.6314 369.852 94.9043 370.083C95.1771 370.298 95.4431 370.517 95.7023 370.74C95.9752 370.956 96.2276 371.166 96.4595 371.372C96.705 371.587 96.9097 371.776 97.0734 371.94C98.383 373.223 99.0379 374.656 99.0379 376.24C99.0242 377 98.881 377.536 98.6081 377.849C98.3489 378.154 98.0147 378.317 97.6054 378.339C97.2098 378.368 96.7528 378.28 96.2344 378.074C95.7296 377.877 95.2249 377.624 94.7201 377.314C94.229 377.013 93.731 376.652 93.2263 376.231C92.7215 375.81 92.2577 375.333 91.8348 374.802C91.4255 374.263 91.0708 373.678 90.7707 373.046C90.4842 372.407 90.3 371.718 90.2182 370.98L91.978 372.058C92.0871 372.509 92.2577 372.917 92.4896 373.284C92.7215 373.65 92.9671 373.976 93.2263 374.263C93.4991 374.558 93.7515 374.801 93.9834 374.991C94.229 375.189 94.5018 375.381 94.802 375.565C95.0202 375.698 95.2726 375.837 95.5591 375.981C95.8456 376.124 96.1184 376.219 96.3776 376.266C96.6368 376.297 96.8551 376.247 97.0325 376.115C97.2098 375.984 97.2985 375.702 97.2985 375.27C97.2985 374.79 97.1621 374.347 96.8892 373.94C96.63 373.541 96.2685 373.143 95.8047 372.747C95.4772 372.466 95.1362 372.185 94.7815 371.904C94.4404 371.615 94.0926 371.322 93.7379 371.024C93.3968 370.719 93.0626 370.411 92.7352 370.098C92.4077 369.769 92.1008 369.413 91.8143 369.03C91.4323 368.524 91.1254 367.968 90.8934 367.361C90.6615 366.755 90.5456 366.116 90.5456 365.444C90.5729 364.757 90.7093 364.265 90.9548 363.967C91.2004 363.654 91.5142 363.47 91.8962 363.416C92.3054 363.379 92.742 363.446 93.2058 363.618C93.6696 363.791 94.1608 364.036 94.6792 364.353C95.7842 365.03 96.6641 365.85 97.3189 366.811C97.7146 367.373 98.0215 367.946 98.2398 368.527C98.4581 369.109 98.5945 369.665 98.6491 370.194L97.0325 369.203C96.937 368.681 96.6778 368.146 96.2548 367.599C95.8319 367.052 95.2931 366.57 94.6382 366.152ZM105.05 372.532C104.804 372.382 104.552 372.251 104.293 372.14C104.047 372.022 103.802 371.951 103.556 371.929C103.324 371.899 103.119 371.949 102.942 372.081C102.778 372.204 102.69 372.454 102.676 372.83C102.676 373.374 102.847 373.886 103.188 374.367C103.542 374.857 103.999 375.337 104.559 375.807C104.791 376.014 105.043 376.232 105.316 376.463C105.589 376.679 105.855 376.898 106.114 377.121C106.387 377.336 106.639 377.546 106.871 377.752C107.117 377.967 107.321 378.156 107.485 378.321C108.795 379.603 109.449 381.037 109.449 382.621C109.436 383.38 109.293 383.916 109.02 384.229C108.76 384.534 108.426 384.698 108.017 384.719C107.621 384.748 107.164 384.66 106.646 384.455C106.141 384.257 105.636 384.004 105.132 383.695C104.641 383.394 104.143 383.032 103.638 382.611C103.133 382.19 102.669 381.714 102.246 381.182C101.837 380.644 101.482 380.058 101.182 379.426C100.896 378.787 100.712 378.098 100.63 377.36L102.39 378.438C102.499 378.889 102.669 379.298 102.901 379.664C103.133 380.03 103.379 380.356 103.638 380.643C103.911 380.938 104.163 381.181 104.395 381.371C104.641 381.57 104.913 381.761 105.213 381.945C105.432 382.079 105.684 382.217 105.971 382.361C106.257 382.504 106.53 382.599 106.789 382.646C107.048 382.677 107.267 382.627 107.444 382.496C107.621 382.364 107.71 382.083 107.71 381.651C107.71 381.171 107.574 380.727 107.301 380.32C107.042 379.921 106.68 379.523 106.216 379.127C105.889 378.847 105.548 378.566 105.193 378.284C104.852 377.995 104.504 377.702 104.149 377.405C103.808 377.1 103.474 376.791 103.147 376.478C102.819 376.15 102.512 375.793 102.226 375.41C101.844 374.904 101.537 374.348 101.305 373.742C101.073 373.135 100.957 372.496 100.957 371.824C100.984 371.137 101.121 370.645 101.366 370.347C101.612 370.034 101.926 369.85 102.308 369.796C102.717 369.759 103.154 369.826 103.617 369.999C104.081 370.171 104.572 370.416 105.091 370.734C106.196 371.411 107.076 372.23 107.73 373.191C108.126 373.754 108.433 374.326 108.651 374.907C108.87 375.489 109.006 376.045 109.061 376.574L107.444 375.584C107.348 375.061 107.089 374.526 106.666 373.979C106.243 373.432 105.705 372.95 105.05 372.532ZM116.418 390.611C115.559 390.084 114.815 389.469 114.188 388.764C113.56 388.06 113.042 387.294 112.633 386.467C112.223 385.64 111.916 384.772 111.712 383.863C111.507 382.953 111.405 382.035 111.405 381.107C111.405 380.211 111.514 379.438 111.732 378.787C111.95 378.121 112.271 377.63 112.694 377.313C113.117 376.98 113.649 376.842 114.29 376.899C114.931 376.94 115.709 377.24 116.623 377.8C117.169 378.135 117.653 378.504 118.076 378.907C118.499 379.294 118.894 379.752 119.263 380.282C119.645 380.804 119.972 381.389 120.245 382.036C120.518 382.683 120.716 383.388 120.838 384.152L119.058 383.061C118.853 382.231 118.526 381.527 118.076 380.947C117.639 380.375 117.121 379.914 116.521 379.562C115.934 379.202 115.416 379.021 114.965 379.017C114.529 379.005 114.174 379.132 113.901 379.397C113.642 379.67 113.451 380.057 113.328 380.558C113.206 381.042 113.144 381.581 113.144 382.173C113.144 382.797 113.206 383.426 113.328 384.062C113.465 384.705 113.663 385.322 113.922 385.913C114.195 386.496 114.542 387.046 114.965 387.561C115.388 388.06 115.893 388.489 116.48 388.849C116.766 389.024 117.046 389.164 117.319 389.267C117.605 389.378 117.864 389.433 118.096 389.431C118.342 389.422 118.553 389.343 118.731 389.196C118.908 389.049 119.038 388.816 119.119 388.498L120.92 389.602C120.811 390.191 120.613 390.638 120.327 390.942C120.054 391.239 119.713 391.422 119.304 391.491C118.894 391.544 118.444 391.493 117.953 391.336C117.462 391.179 116.95 390.937 116.418 390.611ZM127.872 384.694C128.732 385.221 129.475 385.836 130.103 386.541C130.73 387.246 131.256 388.015 131.679 388.851C132.115 389.694 132.436 390.579 132.64 391.504C132.859 392.422 132.968 393.353 132.968 394.297C132.968 395.241 132.859 396.046 132.64 396.712C132.436 397.371 132.115 397.854 131.679 398.163C131.256 398.463 130.724 398.577 130.082 398.504C129.441 398.432 128.691 398.132 127.831 397.605C126.972 397.078 126.222 396.459 125.58 395.746C124.953 395.041 124.421 394.275 123.984 393.448C123.561 392.612 123.241 391.736 123.023 390.818C122.818 389.893 122.716 388.958 122.716 388.014C122.716 387.07 122.818 386.269 123.023 385.61C123.241 384.944 123.561 384.452 123.984 384.136C124.421 383.827 124.967 383.713 125.621 383.795C126.276 383.876 127.027 384.176 127.872 384.694ZM127.831 395.805C128.418 396.165 128.923 396.354 129.346 396.373C129.782 396.401 130.137 396.29 130.41 396.041C130.696 395.785 130.901 395.414 131.024 394.929C131.16 394.453 131.228 393.887 131.228 393.231C131.228 392.591 131.16 391.949 131.024 391.305C130.901 390.654 130.696 390.033 130.41 389.441C130.137 388.842 129.782 388.289 129.346 387.781C128.923 387.282 128.418 386.853 127.831 386.493C127.245 386.134 126.74 385.944 126.317 385.925C125.894 385.906 125.54 386.025 125.253 386.281C124.98 386.53 124.776 386.9 124.639 387.393C124.516 387.878 124.455 388.44 124.455 389.08C124.455 389.736 124.516 390.382 124.639 391.017C124.776 391.66 124.98 392.282 125.253 392.881C125.54 393.473 125.894 394.018 126.317 394.517C126.74 395.016 127.245 395.446 127.831 395.805ZM144.913 407.928L143.255 406.913L143.173 404.967C142.805 405.461 142.293 405.667 141.639 405.586C140.997 405.513 140.322 405.259 139.613 404.825C138.794 404.307 138.085 403.704 137.485 403.016C136.884 402.313 136.393 401.556 136.011 400.746C135.629 399.936 135.343 399.088 135.152 398.203C134.974 397.31 134.886 396.408 134.886 395.496C134.886 394.584 134.981 393.794 135.172 393.127C135.363 392.444 135.656 391.936 136.052 391.603C136.448 391.253 136.946 391.094 137.546 391.126C138.146 391.158 138.862 391.429 139.695 391.939C140.322 392.323 140.956 392.848 141.598 393.513C142.239 394.178 142.764 394.94 143.173 395.799V389.895L144.913 390.96V407.928ZM139.838 393.851C139.251 393.491 138.753 393.314 138.344 393.319C137.935 393.308 137.6 393.432 137.341 393.689C137.096 393.954 136.912 394.337 136.789 394.838C136.68 395.331 136.625 395.914 136.625 396.586C136.625 397.258 136.68 397.899 136.789 398.51C136.898 399.105 137.082 399.69 137.341 400.265C137.6 400.84 137.935 401.38 138.344 401.887C138.753 402.378 139.258 402.807 139.858 403.175C140.554 403.601 141.127 403.761 141.577 403.652C142.027 403.544 142.389 403.286 142.662 402.877C142.853 402.594 142.989 402.246 143.071 401.832C143.153 401.402 143.194 400.955 143.194 400.491C143.194 399.915 143.146 399.358 143.051 398.819C142.969 398.289 142.812 397.745 142.58 397.187C142.307 396.556 141.946 395.942 141.495 395.346C141.045 394.75 140.493 394.252 139.838 393.851ZM148.995 404.862C149.036 405.447 149.132 406.026 149.282 406.598C149.446 407.162 149.664 407.704 149.937 408.223C150.21 408.742 150.544 409.227 150.94 409.678C151.349 410.12 151.819 410.505 152.351 410.831C152.611 410.99 152.877 411.129 153.15 411.248C153.436 411.36 153.702 411.427 153.948 411.449C154.193 411.456 154.411 411.405 154.602 411.298C154.793 411.191 154.937 411.007 155.032 410.746L156.812 411.837C156.69 412.369 156.478 412.768 156.178 413.032C155.892 413.304 155.544 413.459 155.135 413.496C154.739 413.542 154.296 413.486 153.804 413.329C153.313 413.156 152.815 412.915 152.311 412.606C151.451 412.079 150.701 411.459 150.06 410.746C149.432 410.042 148.907 409.28 148.484 408.461C148.061 407.626 147.747 406.753 147.543 405.844C147.338 404.919 147.236 403.984 147.236 403.04C147.236 402.096 147.345 401.299 147.563 400.649C147.795 399.991 148.122 399.503 148.545 399.187C148.968 398.87 149.487 398.739 150.101 398.796C150.714 398.852 151.444 399.139 152.29 399.657C153.15 400.184 153.893 400.84 154.521 401.624C155.148 402.409 155.653 403.246 156.035 404.136C156.417 405.01 156.683 405.869 156.833 406.713C156.997 407.566 157.065 408.303 157.038 408.927C157.038 409.071 157.031 409.21 157.017 409.346C157.017 409.49 157.01 409.63 156.997 409.766L148.995 404.862ZM155.278 406.936C155.25 405.847 154.964 404.8 154.418 403.793C153.873 402.787 153.143 402.004 152.229 401.444C151.724 401.134 151.281 400.959 150.899 400.917C150.517 400.875 150.196 400.942 149.937 401.119C149.678 401.296 149.473 401.563 149.323 401.919C149.173 402.259 149.077 402.657 149.036 403.111L155.278 406.936Z" fill="white"/>
<rect x="0.21316" y="0.380625" width="42.5" height="42.5" rx="3.75" transform="matrix(0.85264 0.522499 0 1 65.6109 374.202)" stroke="white" stroke-width="0.5"/>
<rect x="0.21316" y="0.380625" width="42.5" height="42.5" rx="3.75" transform="matrix(0.85264 0.522499 0 1 112.506 402.939)" stroke="white" stroke-width="0.5"/>
<rect x="0.21316" y="0.380625" width="42.5" height="42.5" rx="3.75" transform="matrix(0.85264 0.522499 0 1 159.401 431.676)" stroke="white" stroke-width="0.5"/>
<path d="M77.039 125.367L80.1903 142.467L83.4849 129.317L85.4085 130.496L81.4795 145.057L78.7783 143.401L75.627 126.494L72.4756 139.539L69.7949 137.896L65.866 118.521L67.8714 119.749L71.166 136.936L74.3173 123.7L77.039 125.367ZM93.4555 150.787C93.2236 151.013 92.9576 151.146 92.6575 151.186C92.3573 151.226 92.0436 151.21 91.7161 151.138C91.4024 151.073 91.0818 150.965 90.7544 150.812C90.4406 150.668 90.1268 150.5 89.813 150.307C89.3083 149.998 88.8308 149.633 88.3806 149.214C87.9304 148.794 87.5211 148.311 87.1528 147.765C86.7981 147.228 86.5116 146.652 86.2933 146.038C86.0887 145.433 85.9864 144.826 85.9864 144.218C85.9864 143.498 86.0955 142.965 86.3138 142.619C86.5457 142.265 86.8527 142.053 87.2347 141.983C87.6166 141.913 88.0532 141.973 88.5443 142.162C89.0491 142.343 89.5811 142.605 90.1405 142.948L93.3123 144.892C93.3123 143.82 93.1145 142.85 92.7188 141.984C92.3232 141.102 91.6547 140.356 90.7134 139.747C90.1405 139.396 89.6357 139.199 89.1991 139.155C88.7626 139.112 88.4625 139.296 88.2988 139.707L86.4366 138.566C86.5321 138.049 86.7231 137.678 87.0096 137.453C87.2961 137.213 87.6371 137.086 88.0327 137.072C88.4284 137.043 88.8581 137.106 89.3219 137.262C89.7858 137.419 90.2496 137.639 90.7134 137.923C91.5183 138.416 92.1936 138.99 92.7393 139.645C93.2986 140.291 93.7488 140.975 94.0899 141.696C94.4309 142.401 94.6697 143.155 94.8061 143.959C94.9425 144.763 95.0107 145.612 95.0107 146.508V153.348L93.5578 152.458L93.4555 150.787ZM91.4092 145.429C91.0818 145.229 90.6998 145.003 90.2632 144.751C89.8403 144.492 89.4311 144.289 89.0354 144.143C88.6398 143.996 88.3192 144 88.0737 144.153C87.8417 144.315 87.7258 144.644 87.7258 145.14C87.7258 145.508 87.7872 145.858 87.91 146.189C88.0327 146.52 88.1964 146.837 88.4011 147.138C88.6194 147.448 88.8649 147.726 89.1378 147.974C89.4106 148.221 89.6903 148.432 89.9768 148.608C90.9999 149.235 91.8048 149.44 92.3914 149.223C92.9917 148.999 93.2986 148.331 93.3123 147.22V146.596L91.4092 145.429ZM97.7055 155V138.032L99.4449 139.098V156.066L97.7055 155ZM102.182 157.743V140.775L103.921 141.841V158.809L102.182 157.743ZM108.009 155.746C108.05 156.331 108.145 156.909 108.295 157.481C108.459 158.046 108.677 158.587 108.95 159.107C109.223 159.626 109.557 160.111 109.953 160.561C110.362 161.004 110.833 161.388 111.365 161.714C111.624 161.873 111.89 162.012 112.163 162.131C112.449 162.243 112.715 162.31 112.961 162.332C113.207 162.339 113.425 162.289 113.616 162.182C113.807 162.075 113.95 161.89 114.046 161.629L115.826 162.72C115.703 163.253 115.492 163.651 115.191 163.915C114.905 164.188 114.557 164.343 114.148 164.38C113.752 164.425 113.309 164.37 112.818 164.213C112.327 164.04 111.829 163.799 111.324 163.489C110.464 162.963 109.714 162.343 109.073 161.63C108.445 160.925 107.92 160.163 107.497 159.344C107.074 158.509 106.761 157.637 106.556 156.727C106.351 155.802 106.249 154.867 106.249 153.923C106.249 152.979 106.358 152.182 106.576 151.532C106.808 150.874 107.136 150.387 107.559 150.07C107.982 149.753 108.5 149.623 109.114 149.679C109.728 149.735 110.458 150.022 111.303 150.541C112.163 151.067 112.906 151.723 113.534 152.508C114.161 153.292 114.666 154.129 115.048 155.019C115.43 155.894 115.696 156.753 115.846 157.597C116.01 158.449 116.078 159.187 116.051 159.81C116.051 159.954 116.044 160.094 116.03 160.229C116.03 160.373 116.024 160.513 116.01 160.649L108.009 155.746ZM114.291 157.819C114.264 156.731 113.977 155.683 113.432 154.677C112.886 153.67 112.156 152.887 111.242 152.327C110.737 152.018 110.294 151.842 109.912 151.8C109.53 151.758 109.209 151.825 108.95 152.003C108.691 152.18 108.486 152.446 108.336 152.802C108.186 153.142 108.091 153.54 108.05 153.995L114.291 157.819ZM121.11 156.694L123.996 158.462V160.262L121.11 158.494V165.046C121.11 165.91 121.254 166.638 121.54 167.23C121.827 167.805 122.359 168.331 123.136 168.808L123.934 169.297V171.073L122.768 170.358C121.54 169.606 120.667 168.743 120.149 167.769C119.63 166.795 119.371 165.604 119.371 164.196V157.428L117.611 156.35V154.55L119.371 155.628V151.86L121.11 152.926V156.694Z" fill="white"/>
<defs>
<filter id="filter0_f_2732_137427" x="0.0513916" y="127.313" width="270.527" height="301.663" filterUnits="userSpaceOnUse" color-interpolation-filters="sRGB">
<feFlood flood-opacity="0" result="BackgroundImageFix"/>
<feBlend mode="normal" in="SourceGraphic" in2="BackgroundImageFix" result="shape"/>
<feGaussianBlur stdDeviation="10" result="effect1_foregroundBlur_2732_137427"/>
</filter>
<filter id="filter1_i_2732_137427" x="17" y="154.331" width="218.095" height="259.618" filterUnits="userSpaceOnUse" color-interpolation-filters="sRGB">
<feFlood flood-opacity="0" result="BackgroundImageFix"/>
<feBlend mode="normal" in="SourceGraphic" in2="BackgroundImageFix" result="shape"/>
<feColorMatrix in="SourceAlpha" type="matrix" values="0 0 0 0 0 0 0 0 0 0 0 0 0 0 0 0 0 0 127 0" result="hardAlpha"/>
<feOffset dy="4.85745"/>
<feGaussianBlur stdDeviation="7.28618"/>
<feComposite in2="hardAlpha" operator="arithmetic" k2="-1" k3="1"/>
<feColorMatrix type="matrix" values="0 0 0 0 1 0 0 0 0 1 0 0 0 0 1 0 0 0 0.14 0"/>
<feBlend mode="normal" in2="shape" result="effect1_innerShadow_2732_137427"/>
</filter>
<filter id="filter2_i_2732_137427" x="25.6181" y="173.419" width="195.512" height="217.422" filterUnits="userSpaceOnUse" color-interpolation-filters="sRGB">
<feFlood flood-opacity="0" result="BackgroundImageFix"/>
<feBlend mode="normal" in="SourceGraphic" in2="BackgroundImageFix" result="shape"/>
<feColorMatrix in="SourceAlpha" type="matrix" values="0 0 0 0 0 0 0 0 0 0 0 0 0 0 0 0 0 0 127 0" result="hardAlpha"/>
<feOffset dx="-4.85745" dy="2.42873"/>
<feGaussianBlur stdDeviation="1.21436"/>
<feComposite in2="hardAlpha" operator="arithmetic" k2="-1" k3="1"/>
<feColorMatrix type="matrix" values="0 0 0 0 0 0 0 0 0 0 0 0 0 0 0 0 0 0 0.25 0"/>
<feBlend mode="normal" in2="shape" result="effect1_innerShadow_2732_137427"/>
</filter>
<linearGradient id="paint0_linear_2732_137427" x1="20.0514" y1="408.976" x2="288.956" y2="190.617" gradientUnits="userSpaceOnUse">
<stop stop-color="#AC50EF"/>
<stop offset="0.46875" stop-color="#7059FB"/>
<stop offset="1" stop-color="#2ECFF6"/>
</linearGradient>
<linearGradient id="paint1_linear_2732_137427" x1="20.0513" y1="408.976" x2="288.956" y2="190.617" gradientUnits="userSpaceOnUse">
<stop stop-color="#AC50EF"/>
<stop offset="0.46875" stop-color="#7059FB"/>
<stop offset="1" stop-color="#2ECFF6"/>
</linearGradient>
<linearGradient id="paint2_linear_2732_137427" x1="-4.07234e-06" y1="136.26" x2="124.93" y2="-76.5581" gradientUnits="userSpaceOnUse">
<stop stop-color="#AC50EF"/>
<stop offset="0.46875" stop-color="#7059FB"/>
<stop offset="1" stop-color="#2ECFF6"/>
</linearGradient>
</defs>
</svg>
