<svg width="1440" height="902" viewBox="0 0 1440 902" fill="none" xmlns="http://www.w3.org/2000/svg">
<g clip-path="url(#clip0_2226_8339)">
<path d="M0.274414 109.617L1440.27 -0.257324V705.868L0.274414 815.743L0.274414 109.617Z" fill="url(#paint0_linear_2226_8339)"/>
<mask id="mask0_2226_8339" style="mask-type:alpha" maskUnits="userSpaceOnUse" x="0" y="-1" width="1441" height="818">
<path d="M0.274414 110.558L1440.27 -0.257324V705.607L0.274414 816.423L0.274414 110.558Z" fill="url(#paint1_linear_2226_8339)"/>
</mask>
<g mask="url(#mask0_2226_8339)">
<g opacity="0.7">
<rect width="442.226" height="319.307" rx="30" transform="matrix(0.866094 0.499881 -0.866094 0.499881 1124.41 72.8882)" fill="url(#paint2_linear_2226_8339)"/>
</g>
<g opacity="0.7">
<rect width="374.993" height="270.762" rx="25.439" transform="matrix(0.866094 0.499881 -0.866094 0.499881 112.009 534.814)" fill="url(#paint3_linear_2226_8339)"/>
<rect width="374.993" height="270.762" rx="25.439" transform="matrix(0.866094 0.499881 -0.866094 0.499881 112.009 389.863)" fill="url(#paint4_linear_2226_8339)"/>
</g>
</g>
</g>
<defs>
<linearGradient id="paint0_linear_2226_8339" x1="0.274414" y1="-0.257324" x2="817.974" y2="1031.8" gradientUnits="userSpaceOnUse">
<stop stop-color="#2969E6"/>
<stop offset="1" stop-color="#1C2ED0"/>
</linearGradient>
<linearGradient id="paint1_linear_2226_8339" x1="0.274414" y1="-0.257324" x2="818.811" y2="1032" gradientUnits="userSpaceOnUse">
<stop stop-color="#2969E6"/>
<stop offset="1" stop-color="#1C2ED0"/>
</linearGradient>
<linearGradient id="paint2_linear_2226_8339" x1="123.319" y1="322.179" x2="105.556" y2="0.692005" gradientUnits="userSpaceOnUse">
<stop stop-color="white" stop-opacity="0.22"/>
<stop offset="1" stop-color="white" stop-opacity="0.09"/>
</linearGradient>
<linearGradient id="paint3_linear_2226_8339" x1="104.57" y1="273.197" x2="89.5085" y2="0.586798" gradientUnits="userSpaceOnUse">
<stop stop-color="white" stop-opacity="0.22"/>
<stop offset="1" stop-color="white" stop-opacity="0.09"/>
</linearGradient>
<linearGradient id="paint4_linear_2226_8339" x1="104.57" y1="273.197" x2="89.5085" y2="0.586798" gradientUnits="userSpaceOnUse">
<stop stop-color="white" stop-opacity="0.22"/>
<stop offset="1" stop-color="white" stop-opacity="0.09"/>
</linearGradient>
<clipPath id="clip0_2226_8339">
<rect width="1440" height="902" fill="white"/>
</clipPath>
</defs>
</svg>
