<svg width="205" height="244" viewBox="0 0 205 244" fill="none" xmlns="http://www.w3.org/2000/svg">
<g filter="url(#filter0_f_2757_197102)">
<path fill-rule="evenodd" clip-rule="evenodd" d="M149.977 193.762C159.024 186.539 164.472 173.633 164.472 156.112C164.472 116.556 136.701 68.4557 102.444 48.6775C84.4122 38.2666 68.1772 37.7783 56.8437 45.4205L56.8399 45.4145L56.5772 45.6022C56.3109 45.7861 56.0474 45.9744 55.7866 46.1673L44.8184 54.0068L46.5861 56.8737C42.6333 64.0168 40.417 73.3143 40.417 84.4891C40.417 124.045 68.1876 172.146 102.444 191.924C114.339 198.791 125.452 201.341 134.892 200.088L136.816 203.207L150.01 193.815L149.977 193.762Z" fill="url(#paint0_linear_2757_197102)"/>
</g>
<path fill-rule="evenodd" clip-rule="evenodd" d="M149.977 193.762C159.024 186.539 164.472 173.633 164.472 156.112C164.472 116.556 136.701 68.4556 102.444 48.6774C84.4122 38.2665 68.1772 37.7783 56.8437 45.4204L56.8399 45.4144L56.5772 45.6022C56.3109 45.786 56.0474 45.9744 55.7866 46.1673L44.8184 54.0067L46.5861 56.8736C42.6333 64.0167 40.417 73.3142 40.417 84.489C40.417 124.045 68.1876 172.146 102.444 191.924C114.339 198.791 125.452 201.341 134.892 200.088L136.816 203.207L150.01 193.815L149.977 193.762Z" fill="url(#paint1_linear_2757_197102)"/>
<g style="mix-blend-mode:overlay" opacity="0.2">
<path fill-rule="evenodd" clip-rule="evenodd" d="M149.977 193.762C159.024 186.539 164.472 173.633 164.472 156.112C164.472 116.556 136.701 68.4556 102.444 48.6774C84.4122 38.2665 68.1772 37.7783 56.8437 45.4204L56.8399 45.4144L56.5772 45.6022C56.3109 45.786 56.0474 45.9744 55.7866 46.1673L44.8184 54.0067L46.5861 56.8736C42.6333 64.0167 40.417 73.3142 40.417 84.489C40.417 124.045 68.1876 172.146 102.444 191.924C114.339 198.791 125.452 201.341 134.892 200.088L136.816 203.207L150.01 193.815L149.977 193.762Z" fill="#07091B"/>
</g>
<circle r="71.6232" transform="matrix(0.866025 0.5 -2.20305e-08 1 91.0275 128.435)" fill="url(#paint2_linear_2757_197102)"/>
<g style="mix-blend-mode:overlay" filter="url(#filter1_i_2757_197102)">
<circle r="55.9867" transform="matrix(0.866025 0.5 -2.20305e-08 1 91.0279 131.017)" fill="#07091B" fill-opacity="0.1"/>
</g>
<g style="mix-blend-mode:lighten">
<path d="M109.265 159.036L89.1254 147.408L92.8907 134.92L98.67 136.336L99.8959 132.19L94.1166 130.876L100.246 110.35L100.246 110.047C100.246 109.339 99.8083 108.581 99.1954 108.227L91.4021 103.727C90.7891 103.374 90.2637 103.576 90.0886 104.182L82.9082 128.449L77.1289 127.135L75.8154 131.129L81.5947 132.443L76.4284 149.784L107.164 167.529C107.777 167.883 108.302 167.681 108.477 167.175L110.229 161.209L110.229 160.906C110.316 160.148 109.878 159.389 109.265 159.036V159.036Z" fill="white"/>
</g>
<circle r="55.9867" transform="matrix(0.866025 0.5 -2.20305e-08 1 91.0279 131.017)" stroke="white" stroke-width="0.645453"/>
<defs>
<filter id="filter0_f_2757_197102" x="0.416992" y="0.205994" width="204.055" height="243.001" filterUnits="userSpaceOnUse" color-interpolation-filters="sRGB">
<feFlood flood-opacity="0" result="BackgroundImageFix"/>
<feBlend mode="normal" in="SourceGraphic" in2="BackgroundImageFix" result="shape"/>
<feGaussianBlur stdDeviation="20" result="effect1_foregroundBlur_2757_197102"/>
</filter>
<filter id="filter1_i_2757_197102" x="42.542" y="68.4078" width="96.9717" height="130.381" filterUnits="userSpaceOnUse" color-interpolation-filters="sRGB">
<feFlood flood-opacity="0" result="BackgroundImageFix"/>
<feBlend mode="normal" in="SourceGraphic" in2="BackgroundImageFix" result="shape"/>
<feColorMatrix in="SourceAlpha" type="matrix" values="0 0 0 0 0 0 0 0 0 0 0 0 0 0 0 0 0 0 127 0" result="hardAlpha"/>
<feOffset dy="5.16362"/>
<feGaussianBlur stdDeviation="2.58181"/>
<feComposite in2="hardAlpha" operator="arithmetic" k2="-1" k3="1"/>
<feColorMatrix type="matrix" values="0 0 0 0 0 0 0 0 0 0 0 0 0 0 0 0 0 0 0.25 0"/>
<feBlend mode="normal" in2="shape" result="effect1_innerShadow_2757_197102"/>
</filter>
<linearGradient id="paint0_linear_2757_197102" x1="40.417" y1="203.207" x2="201.352" y2="90.3143" gradientUnits="userSpaceOnUse">
<stop stop-color="#AC50EF"/>
<stop offset="0.46875" stop-color="#7059FB"/>
<stop offset="1" stop-color="#2ECFF6"/>
</linearGradient>
<linearGradient id="paint1_linear_2757_197102" x1="40.417" y1="203.207" x2="201.352" y2="90.3143" gradientUnits="userSpaceOnUse">
<stop stop-color="#AC50EF"/>
<stop offset="0.46875" stop-color="#7059FB"/>
<stop offset="1" stop-color="#2ECFF6"/>
</linearGradient>
<linearGradient id="paint2_linear_2757_197102" x1="-3.48309e-06" y1="143.246" x2="127.908" y2="26.4033" gradientUnits="userSpaceOnUse">
<stop stop-color="#AC50EF"/>
<stop offset="0.46875" stop-color="#7059FB"/>
<stop offset="1" stop-color="#2ECFF6"/>
</linearGradient>
</defs>
</svg>
