<svg width="142" height="36" viewBox="0 0 142 36" fill="none" xmlns="http://www.w3.org/2000/svg">
<path opacity="0.4" d="M15.8186 0.959581C13.992 1.16647 11.2521 2.02585 9.69324 2.88524C5.50471 5.16102 2.67037 8.70996 1.2532 13.4366C0.969765 14.3596 0.639092 16.8741 0.654838 18.0518C0.654838 19.0862 0.969765 21.6166 1.15872 22.2214C1.2532 22.5079 1.4579 23.1922 1.63111 23.7174C1.91455 24.6086 3.28448 27.4095 3.52067 27.6005C3.56791 27.6482 3.81985 27.9665 4.05605 28.3326C4.63866 29.2079 6.16606 30.7675 7.31554 31.6587C8.19734 32.343 10.6853 33.7913 11.0002 33.8072C11.0789 33.8072 11.0947 33.2024 11.0474 32.4067C10.9372 30.6402 11.2679 28.2371 11.9765 25.7862C12.1024 25.3725 12.1969 24.8314 12.1969 24.5927C12.1969 24.3539 12.2599 24.0993 12.3386 24.0197C12.4174 23.9242 12.5591 23.4627 12.6378 22.9853C12.7323 22.5079 12.8897 21.7758 13 21.362C13.1574 20.7413 13.1417 20.5026 12.9212 19.8342C12.6063 18.8157 12.5906 17.1606 12.9055 16.3648C13.6456 14.471 14.4644 13.7549 15.8501 13.7549C17.5192 13.7549 18.3222 15.028 18.0073 17.1606C17.8656 18.1314 17.4719 19.6592 17.22 20.1366C17.157 20.2798 17.0468 20.6777 16.9995 21.0119C16.9366 21.362 16.8106 21.8554 16.7319 22.1259C16.5114 22.7466 16.9366 23.9561 17.5034 24.4176C18.0388 24.8473 19.1568 24.9746 20.1803 24.7359C20.9046 24.5767 21.2038 24.3858 21.9596 23.6537C22.8572 22.7625 23.5343 21.728 23.5343 21.2347C23.5343 21.0915 23.613 20.9005 23.7075 20.805C24.1484 20.3594 24.3846 16.89 24.0539 15.4259C23.6917 13.8185 22.5737 12.243 21.1251 11.3199C19.6764 10.381 16.6846 10.1104 14.8423 10.747C13.5511 11.1926 12.4016 11.9406 11.6615 12.8159C11.0002 13.5957 10.3073 14.8689 10.3073 15.3145C10.3073 15.4736 10.2286 15.6805 10.1341 15.776C10.0397 15.8715 9.92943 16.4762 9.88219 17.1287C9.80346 18.0995 9.86645 18.5451 10.1499 19.5C10.3388 20.1525 10.6853 20.9164 10.89 21.2029C11.3151 21.7758 11.3151 21.9986 10.9215 23.5264C10.8112 23.9402 10.6223 24.3221 10.512 24.3699C9.52003 24.7518 7.5045 22.3487 6.8274 19.9615C6.57546 19.0544 6.55972 15.8237 6.81166 14.8689C6.92188 14.471 7.11084 13.9299 7.23681 13.6435C7.36278 13.3729 7.473 13.1024 7.473 13.0387C7.473 12.975 7.78793 12.434 8.18159 11.8451C10.2286 8.72587 13.5511 7.07076 17.7554 7.07076C18.7159 7.07076 19.7079 7.13442 19.9756 7.21399C22.1486 7.89832 22.7312 8.12112 23.5815 8.63038C25.2349 9.633 26.4316 11.0016 27.6283 13.2933C27.7071 13.4366 27.8173 13.8185 27.8645 14.1368C27.9275 14.4551 28.0377 14.7575 28.1165 14.8052C28.1952 14.853 28.2582 15.8874 28.2582 17.1128C28.2582 19.3249 28.1007 20.2162 27.4394 22.0304C26.6993 24.0197 24.794 26.2159 23.0619 27.0753C22.0699 27.5528 20.2118 28.0779 19.4717 28.0779C18.4797 28.0779 16.5271 27.2504 15.9918 26.582C15.7398 26.2796 15.5036 26.391 15.5036 26.8207C15.5036 26.9798 15.4407 27.2504 15.3462 27.4095C15.2674 27.5528 15.1257 27.9984 15.047 28.3962C14.5903 30.4969 13.9447 32.1998 12.9527 33.7913C12.6535 34.2846 12.9055 34.5711 13.7243 34.6825C14.1337 34.7461 14.6848 34.8575 14.9368 34.9371C15.5666 35.144 18.9836 35.1122 20.1331 34.9053C21.1723 34.7143 22.8572 34.2369 23.613 33.9186C28.3684 31.9452 31.9743 27.9347 33.5332 22.8261C34.3678 20.1048 34.415 16.9378 33.6592 13.7549C33.4072 12.7204 33.3285 12.4817 32.6514 10.8902C31.6751 8.56673 29.4706 5.84534 27.2347 4.17432C25.3136 2.74201 23.424 1.91445 20.4795 1.1983C19.6607 1.00732 16.7476 0.84818 15.8186 0.959581ZM57.8141 6.70473C57.1999 6.80021 56.2237 7.81874 55.9717 8.61447C55.704 9.48977 55.9717 10.4287 56.7276 11.1608C58.3967 12.8 61.294 11.2563 60.9318 8.90093C60.7114 7.40496 59.3572 6.45009 57.8141 6.70473ZM40.6505 7.64368C40.5088 7.80283 40.5088 26.9958 40.6663 27.2186C40.745 27.3459 41.4221 27.3936 42.7448 27.3777L44.7131 27.3618L44.7918 24.1311C44.8548 21.5052 44.9178 20.8687 45.1068 20.7573C45.2327 20.6777 46.3035 20.5981 47.4845 20.5981C50.0669 20.5981 51.1534 20.4071 52.3343 19.7706C53.8775 18.9271 54.775 17.7176 55.2631 15.7919C55.5623 14.5824 55.5623 13.7071 55.2474 12.4658C54.964 11.3518 54.838 11.0812 54.1609 10.1741C53.3263 9.04416 52.476 8.4235 51.0904 7.93014C50.3188 7.67551 49.6732 7.62777 45.5004 7.58003C42.9023 7.5482 40.7135 7.58002 40.6505 7.64368ZM49.2953 11.6064C50.3503 11.9406 50.8699 12.418 51.1061 13.2774C51.4053 14.4074 51.1848 15.4577 50.5235 16.0943C49.7992 16.7786 49.1536 16.9378 47.0436 16.9378C45.6579 16.9378 45.2327 16.89 45.0438 16.6831C44.8391 16.4922 44.7918 16.0306 44.7918 14.2164C44.7918 11.3518 44.7761 11.3677 46.9648 11.3677C47.9096 11.3677 48.8229 11.4632 49.2953 11.6064ZM76.9144 10.6674C76.9144 11.7655 76.8356 12.8 76.7569 12.975C76.6467 13.1819 76.4262 13.2774 76.0483 13.2774C75.7649 13.2774 75.4972 13.3411 75.4657 13.4366C75.45 13.5161 75.4499 14.0732 75.4972 14.662C75.5759 15.7123 75.5917 15.7283 76.0641 15.8397C76.3317 15.8874 76.6309 15.9829 76.7254 16.0466C76.8671 16.1261 76.9144 17.3834 76.9144 20.5663C76.9144 24.8473 76.9301 25.0064 77.2765 25.643C78.0009 26.9957 79.1346 27.4732 81.4336 27.4095L82.9767 27.3618L83.0239 25.8181L83.0712 24.2585H82.6775C82.0792 24.2585 81.1974 23.781 81.1029 23.3991C81.0556 23.2081 81.0084 21.5212 81.0084 19.6273C81.0084 17.0173 81.0556 16.142 81.2131 16.0147C81.3233 15.9192 81.7642 15.8237 82.1894 15.7919L82.9767 15.7442V13.357L82.1107 13.3093C81.6383 13.2774 81.1974 13.166 81.1344 13.0705C81.0714 12.9591 81.0084 11.9247 81.0084 10.7629V8.66221H76.9144V10.6674ZM135.444 8.7577C135.381 8.82136 135.333 9.82397 135.333 10.9857C135.333 13.2456 135.318 13.2774 134.451 13.2774C134.058 13.2774 134.058 13.2933 134.105 14.5028C134.152 15.7123 134.168 15.7442 134.577 15.7919C134.798 15.8237 135.066 15.9352 135.144 16.0306C135.239 16.142 135.333 18.0677 135.381 20.5185C135.428 22.8739 135.506 25.0223 135.569 25.277C135.758 25.9772 136.735 26.8684 137.664 27.1708C138.703 27.5209 141.348 27.5528 141.616 27.2186C141.742 27.0753 141.789 26.5024 141.758 25.6748L141.711 24.338L141.159 24.2425C140.561 24.147 139.884 23.8288 139.711 23.5582C139.648 23.4627 139.585 21.728 139.585 19.7069C139.585 15.5532 139.49 15.8237 140.86 15.8237C141.758 15.8237 141.837 15.6646 141.758 14.2164L141.711 13.357L140.687 13.2774L139.664 13.1979L139.585 10.9698L139.506 8.74179L137.522 8.69404C136.436 8.67813 135.506 8.70996 135.444 8.7577ZM69.1199 12.8955C68.3484 13.1024 67.4508 13.6275 66.8524 14.2482C66.1281 15.0121 65.9392 14.9644 65.8604 13.9936L65.8132 13.357H61.8766V27.3618L63.8606 27.3936C65.8132 27.4414 65.8604 27.4254 65.9549 27.0753C66.0021 26.8843 66.0494 24.8632 66.0494 22.5715C66.0494 18.0359 66.0651 17.9086 66.9942 17.0173C67.4036 16.6195 67.624 16.5399 68.5058 16.4922L69.5293 16.4285L70.1434 17.081C70.8678 17.8449 70.789 17.1128 70.852 23.7014C70.8678 25.452 70.8835 26.9957 70.8993 27.1549C70.9308 27.3777 71.1827 27.4095 72.9463 27.3777L74.9461 27.3618V16.1898L74.4894 15.2827C73.7021 13.7071 72.4896 12.9591 70.6316 12.8636C69.9702 12.8477 69.2931 12.8477 69.1199 12.8955ZM88.8028 12.8955C87.1022 13.357 86.2834 13.8185 85.2284 14.8689C83.8113 16.3171 83.1657 18.004 83.1657 20.2798C83.1814 24.2744 85.6536 27.2345 89.3067 27.5846C92.4245 27.887 94.8337 26.9639 96.3768 24.8791C96.5973 24.5767 97.0697 23.606 97.0697 23.4309C97.0697 23.3672 96.1564 23.3036 95.0542 23.3036H93.0386L92.5662 23.7969C92.0151 24.3699 91.2435 24.7359 90.5349 24.7359C89.8264 24.7359 88.7399 24.2266 88.236 23.6855C87.8581 23.2558 87.3069 22.0145 87.3069 21.5848C87.3069 21.4416 88.4564 21.3938 92.1568 21.3938C94.8179 21.3938 97.0697 21.3302 97.1799 21.2665C97.4161 21.1074 97.1956 18.577 96.8492 17.6539C96.1406 15.7283 94.8022 14.105 93.448 13.5321C93.0544 13.3729 92.5977 13.166 92.4403 13.0865C92.1096 12.9114 89.3067 12.7682 88.8028 12.8955ZM91.8734 16.3808C92.4875 16.8105 93.0229 17.829 92.9441 18.4019C92.8969 18.7679 92.8654 18.7679 90.2043 18.8157C87.1337 18.8634 87.118 18.8475 87.6061 17.7017C87.9526 16.9059 88.6454 16.1898 89.291 15.9829C90.0311 15.7442 91.2278 15.9352 91.8734 16.3808ZM112.107 12.8955C110.281 13.3888 109.005 14.2005 108.013 15.4577C107.62 15.967 107.305 16.4444 107.305 16.5399C107.305 16.6195 107.195 16.9059 107.053 17.1765C106.911 17.4311 106.706 18.2268 106.596 18.943C106.045 22.3487 107.557 25.5316 110.391 26.9639L111.478 27.5209H113.761C116.123 27.5209 116.327 27.4732 117.776 26.6934C118.831 26.1205 120.563 23.8924 120.296 23.4468C120.233 23.3672 119.335 23.3036 118.28 23.3036H116.343L115.95 23.7651C114.375 25.5634 111.43 24.6404 110.8 22.1418C110.706 21.8076 110.706 21.5212 110.785 21.4575C110.863 21.4097 113.115 21.3779 115.808 21.3938C119.65 21.3938 120.689 21.362 120.705 21.2029C120.847 19.2135 119.902 16.2694 118.721 14.9962C118.06 14.28 116.91 13.4843 116.343 13.3411C116.091 13.2774 115.808 13.166 115.698 13.0865C115.477 12.9114 112.596 12.7682 112.107 12.8955ZM114.564 15.9988C115.272 16.2534 116.091 17.1447 116.217 17.829C116.406 18.8634 116.422 18.8634 113.493 18.8157C110.863 18.7679 110.848 18.7679 110.8 18.4019C110.738 17.9563 111.289 16.8582 111.761 16.4444C112.438 15.8715 113.619 15.6805 114.564 15.9988ZM125.807 12.8955C122.579 13.6753 121.414 14.837 121.398 17.2561C121.398 19.866 122.689 20.9641 126.515 21.6485C129.145 22.11 129.901 22.5238 129.869 23.5264C129.854 24.2425 129.365 24.7041 128.389 24.9109C127.161 25.1815 126.2 24.8791 125.429 24.0038L124.815 23.3036H122.909C121.366 23.3036 121.004 23.3513 121.004 23.5264C121.004 23.9879 121.634 25.1974 122.154 25.8022C122.642 26.3273 123.02 26.582 124.5 27.2981C124.642 27.3777 125.413 27.505 126.185 27.6005C127.618 27.7756 130.106 27.6164 130.735 27.2981C130.877 27.2345 131.286 27.0276 131.633 26.8684C132.53 26.4387 133.381 25.468 133.696 24.5449C134.042 23.4946 133.948 22.0304 133.459 21.0119C132.877 19.8183 131.334 18.9589 129.035 18.5451C126.074 18.02 126.027 18.004 125.555 17.5425C124.988 16.9537 124.988 16.7468 125.555 16.1102C126.011 15.6009 126.043 15.585 127.303 15.585C128.562 15.585 128.594 15.6009 129.05 16.1102C129.302 16.3967 129.507 16.7309 129.507 16.8582C129.507 17.0492 129.838 17.0969 131.475 17.0969C133.648 17.0969 133.585 17.1447 133.208 16.0147C132.515 14.0095 130.735 12.991 127.775 12.8796C126.862 12.8477 125.98 12.8477 125.807 12.8955ZM104.864 13.2297C104.171 13.4684 103.211 14.2641 102.912 14.837C102.612 15.41 102.345 15.1713 102.266 14.2164L102.187 13.357H98.2507L98.2034 20.0411C98.1877 23.7174 98.2034 26.8843 98.2507 27.0912C98.3294 27.4414 98.3766 27.4414 100.266 27.4095C101.353 27.3936 102.234 27.2981 102.297 27.2026C102.36 27.1231 102.423 25.4361 102.423 23.4627C102.423 20.3435 102.455 19.7865 102.723 19.0862C103.274 17.638 104.455 16.7786 105.935 16.7786C106.344 16.7786 106.517 16.699 106.565 16.4922C106.675 16.0306 106.691 13.8822 106.596 13.4047C106.502 13.0228 106.423 12.9591 105.998 12.975C105.714 12.991 105.211 13.1024 104.864 13.2297ZM56.3654 13.4684C56.3181 13.5798 56.3024 16.715 56.3181 20.439L56.3654 27.2026L58.2392 27.2822C59.3729 27.33 60.1918 27.2981 60.3177 27.2026C60.4909 27.0753 60.5382 25.7226 60.5382 20.3116C60.5539 16.6195 60.5067 13.5161 60.4594 13.4366C60.302 13.1979 56.4441 13.2297 56.3654 13.4684Z" fill="white"/>
</svg>
