<svg width="127" height="30" viewBox="0 0 127 30" fill="none" xmlns="http://www.w3.org/2000/svg">
<g opacity="0.4">
<path d="M21.7663 29.0195L13.517 28.867C10.846 28.8139 8.1684 28.92 5.54989 28.3695C1.56635 27.547 1.28415 23.5143 0.988832 20.1316C0.581946 15.3759 0.73945 10.534 1.50728 5.81815C1.94042 3.17169 3.64671 1.59309 6.28491 1.42064C15.1905 0.797161 24.1551 0.870121 33.0409 1.16196C33.9794 1.18849 34.9244 1.33441 35.8498 1.50023C40.4174 2.30943 40.5289 6.87939 40.8243 10.7264C41.1196 14.6132 40.9949 18.5199 40.4305 22.3801C39.9777 25.5771 39.1114 28.2568 35.456 28.5154C30.8753 28.8537 26.3995 29.1256 21.8056 29.0394C21.8056 29.0195 21.7794 29.0195 21.7663 29.0195V29.0195ZM16.9164 20.9276C20.3684 18.9245 23.7548 16.9545 27.187 14.9647C23.7285 12.9616 20.3487 10.9917 16.9164 9.00187V20.9276Z" fill="white"/>
<path d="M106.992 25.3848C106.834 26.0348 106.696 26.5455 106.559 27.0894H103.33V1.91785H107.097V11.2038C107.294 10.9517 107.392 10.8456 107.477 10.7329C108.12 9.83743 108.954 9.25374 110.03 9.02823C111.743 8.68995 113.207 9.45273 113.725 11.1176C114.06 12.1523 114.276 13.26 114.302 14.3411C114.355 17.1203 114.316 19.8928 114.217 22.6719C114.178 23.5209 113.922 24.3898 113.6 25.1858C112.544 27.8124 109.092 28.2103 107.379 25.9353C107.274 25.796 107.175 25.6434 106.992 25.3848V25.3848ZM107.175 18.4601V23.0633C107.175 23.8128 107.569 24.2704 108.311 24.4429C109.039 24.6153 109.63 24.3301 109.925 23.647C110.05 23.3617 110.175 23.0633 110.181 22.7648C110.253 19.9525 110.319 17.1402 110.339 14.3212C110.339 13.7972 110.214 13.2533 110.056 12.7426C109.761 11.8206 108.947 11.5487 108.147 12.086C107.543 12.4972 107.175 13.0809 107.175 13.8569V18.4601ZM96.9377 9.3864H100.882V27.1027H97.804C97.6924 26.4327 97.5808 25.7429 97.4496 24.9337C97.2396 25.2455 97.1149 25.4445 96.9836 25.6434C95.9598 27.1358 94.5095 27.6465 92.7966 27.3746C91.3332 27.1358 90.4538 25.995 90.2569 24.1245C90.1978 23.5674 90.1716 23.0036 90.1716 22.4464C90.1585 18.3009 90.1716 14.1421 90.1716 9.99662V9.37313H94.1617V10.0961C94.1617 14.1023 94.1486 18.1019 94.1748 22.1081C94.1748 22.6786 94.2339 23.2689 94.3323 23.8393C94.4439 24.423 94.8639 24.6352 95.4283 24.5955C96.3405 24.5225 96.9705 23.8393 96.9705 22.924V10.1691C96.9377 9.91039 96.9377 9.67161 96.9377 9.3864V9.3864ZM69.7814 9.37313H73.7452V10.1226C73.7452 14.109 73.7321 18.0887 73.7583 22.0617C73.7583 22.6321 73.8108 23.2225 73.929 23.7796C74.0799 24.4363 74.4606 24.6485 75.1103 24.5623C76.0093 24.4363 76.554 23.8061 76.5606 22.8842V10.1956V9.39967H80.5048V27.1027H77.44C77.3284 26.446 77.2169 25.7695 77.0725 24.9138C76.8756 25.2123 76.764 25.3848 76.6525 25.5638C75.6287 27.0828 74.1915 27.6399 72.4393 27.368C71.0348 27.1557 70.1751 26.1077 69.9126 24.3898C69.8404 23.8526 69.7879 23.3219 69.7879 22.7847C69.7748 18.48 69.7748 14.1554 69.7748 9.8507L69.7814 9.37313ZM67.7469 18.8315C67.7338 19.4285 67.6944 20.0254 67.6616 20.6224C67.5107 22.4133 67.4385 24.9536 66.0078 26.2603C65.0956 27.0828 63.9406 27.3812 62.7462 27.421C62.2146 27.4343 61.6765 27.4343 61.1449 27.3613C58.6314 26.9766 57.4632 25.8557 57.0432 23.0633C56.5642 19.8397 56.5248 16.5631 57.0957 13.3396C57.6864 10.0033 59.7208 8.82261 62.884 9.04149C65.8372 9.25374 67.1563 11.2104 67.5041 13.9962C67.6944 15.5947 67.7863 17.2131 67.7469 18.8315V18.8315ZM63.7306 18.2213C63.7306 17.0871 63.7568 15.9463 63.7175 14.812C63.6912 14.1554 63.6059 13.4921 63.4681 12.8421C63.3106 12.0926 62.8381 11.7344 62.2474 11.7477C61.6699 11.7609 61.263 12.1191 61.053 12.8156C60.9808 13.0742 60.9021 13.3396 60.9021 13.5982C60.9021 15.3758 60.889 17.1601 60.8758 18.9377C60.8627 20.5959 60.6527 22.3337 61.1712 23.9189C61.3287 24.4031 61.7355 24.6684 62.2671 24.6684C62.7856 24.6684 63.1268 24.4097 63.3171 23.9454C63.4681 23.5873 63.5993 23.1959 63.5993 22.8112C63.6453 21.2857 63.7306 19.7535 63.7306 18.2213ZM51.255 14.885C51.6028 13.1671 51.9309 11.489 52.2919 9.80427C52.7447 7.66187 53.25 5.51947 53.6963 3.37043C53.8078 2.84644 54.0178 2.72042 54.51 2.73368C55.5666 2.77348 56.6429 2.74695 57.7717 2.74695C57.4042 4.11331 57.0432 5.41334 56.6889 6.69348C55.5666 10.713 54.4444 14.7457 53.3353 18.7785C53.25 19.0902 53.2106 19.4285 53.2106 19.7601C53.1975 21.9622 53.2106 24.1577 53.2106 26.3598V27.0761H49.3584C49.3452 26.8771 49.319 26.6782 49.319 26.4792C49.319 25.2322 49.2205 23.9786 49.3321 22.7449C49.6143 19.78 48.6824 17.0539 47.9277 14.2947C46.9302 10.6466 45.9195 6.98532 44.922 3.33727C44.8695 3.16482 44.8498 2.9791 44.7973 2.76685H48.7283C49.5552 6.79297 50.3887 10.8191 51.255 14.885ZM126.627 19.5081H119.986C120.058 20.8545 120.084 22.1347 120.222 23.4015C120.32 24.2837 120.8 24.6618 121.554 24.6684C122.342 24.6817 122.801 24.2837 122.985 23.4082C123.044 23.123 123.083 22.8378 123.11 22.5459C123.136 22.2872 123.149 22.0087 123.169 21.6372C124.291 21.6969 125.387 21.7632 126.47 21.8097C127.1 23.7 125.964 26.1276 124.055 26.8771C122.552 27.4741 121.01 27.4741 119.474 27.0164C118.339 26.6782 117.492 25.9485 117.111 24.8276C116.757 23.7796 116.422 22.6852 116.35 21.5908C116.153 18.8912 116.081 16.1651 116.488 13.459C116.56 13.0079 116.685 12.5768 116.823 12.139C117.374 10.3349 118.575 9.22721 120.432 9.04149C121.443 8.942 122.486 8.9818 123.484 9.15425C125.098 9.43946 125.958 10.6135 126.332 12.1523C126.502 12.8753 126.627 13.6181 126.653 14.3544C126.66 16.0457 126.627 17.7239 126.627 19.5081ZM122.854 17.18C122.854 15.8468 122.867 14.5932 122.841 13.3329C122.841 13.0345 122.729 12.7227 122.617 12.4375C122.394 11.8803 121.928 11.7278 121.37 11.7278C120.813 11.7278 120.458 12.013 120.32 12.5237C119.9 14.0559 120.038 15.6212 120.051 17.1932C121.055 17.18 121.968 17.18 122.854 17.18V17.18Z" fill="white"/>
<path d="M83.5492 5.99719H79.6445V2.80017H91.2997V5.97729H87.4212V27.0763H83.5558L83.5492 5.99719Z" fill="white"/>
</g>
</svg>
